<svg xmlns="http://www.w3.org/2000/svg" xmlns:xlink="http://www.w3.org/1999/xlink" width="500" zoomAndPan="magnify" viewBox="0 0 375 374.999991" height="500" preserveAspectRatio="xMidYMid meet" version="1.0"><defs><g/><clipPath id="f6045ff2aa"><path d="M 141 81 L 234 81 L 234 230 L 141 230 Z M 141 81 " clip-rule="nonzero"/></clipPath><clipPath id="82ff5347c3"><path d="M 202.148438 84.015625 C 199.390625 85.488281 195.53125 88.34375 193.601562 90.183594 C 189.648438 94.046875 184.132812 104.445312 183.304688 109.503906 C 182.296875 115.394531 182.113281 115.578125 179.8125 113.921875 C 173.929688 109.6875 168.417969 107.574219 162.167969 107.113281 C 153.34375 106.5625 149.390625 107.664062 149.023438 110.792969 C 148.65625 114.289062 152.609375 121.652344 157.113281 125.699219 C 162.71875 130.761719 168.050781 132.878906 177.054688 133.429688 C 182.664062 133.707031 184.683594 134.164062 184.683594 135.085938 C 184.683594 136.003906 183.398438 136.375 180.640625 136.375 C 170.804688 136.375 158.03125 142.90625 152.054688 151.097656 C 145.53125 159.929688 141.488281 172.902344 141.488281 184.683594 C 141.488281 201.980469 151.414062 220.382812 164.003906 226.546875 C 170.070312 229.492188 180.734375 230.136719 187.351562 227.929688 C 191.117188 226.734375 192.589844 226.640625 195.898438 227.46875 C 202.882812 229.402344 212.167969 226.640625 219.429688 220.566406 C 223.839844 216.886719 228.894531 208.511719 231.285156 201.058594 C 233.859375 192.871094 234.132812 179.4375 232.019531 170.878906 C 229.722656 161.863281 224.574219 152.382812 218.785156 146.585938 C 211.800781 139.59375 207.847656 137.753906 200.125 137.753906 C 191.394531 137.753906 190.660156 136.464844 197.183594 132.140625 C 207.480469 125.332031 214.097656 112.542969 214.097656 99.660156 C 214.003906 92.667969 210.789062 81.714844 208.582031 81.441406 C 207.847656 81.257812 204.90625 82.453125 202.148438 84.015625 Z M 208.582031 92.296875 C 211.800781 105.734375 204.722656 122.941406 193.507812 128.738281 C 190.292969 130.394531 189.28125 129.378906 189.28125 124.410156 C 189.28125 119.257812 192.40625 113.738281 197 110.425781 C 201.320312 107.480469 202.242188 105.457031 199.941406 104.535156 C 198.289062 103.890625 194.242188 106.007812 190.75 109.230469 C 189.371094 110.515625 188.085938 111.53125 187.902344 111.34375 C 187.074219 110.425781 190.660156 101.960938 193.601562 97.820312 C 197 92.941406 205.273438 86.226562 206.742188 87.144531 C 207.113281 87.421875 208.03125 89.722656 208.582031 92.296875 Z M 169.613281 113.277344 C 174.484375 115.488281 179.261719 119.8125 181.558594 123.953125 C 183.03125 126.804688 183.121094 127.355469 181.929688 128.09375 C 180.179688 129.289062 174.941406 129.195312 170.898438 128.09375 C 163.179688 125.976562 153.25 116.683594 154.722656 112.910156 C 155.457031 110.886719 164.832031 111.070312 169.613281 113.277344 Z M 189.925781 143.734375 C 192.40625 144.839844 194.980469 147.140625 197.183594 150.175781 C 200.679688 155.054688 203.25 155.882812 203.804688 152.292969 C 203.988281 151.1875 202.976562 148.613281 201.597656 146.496094 C 200.21875 144.472656 199.300781 142.628906 199.484375 142.355469 C 200.402344 141.527344 207.113281 143.734375 210.421875 145.941406 C 217.589844 150.636719 224.941406 162.320312 227.054688 172.257812 C 227.609375 174.929688 227.882812 181.828125 227.699219 187.71875 C 227.425781 197.472656 227.148438 199.035156 224.484375 204.558594 C 222.921875 207.960938 220.164062 212.378906 218.234375 214.402344 C 213.914062 219.28125 206.285156 223.050781 201.6875 222.683594 L 198.289062 222.40625 L 201.136719 218.910156 C 204.8125 214.21875 205.457031 212.011719 203.527344 210.078125 C 202.148438 208.699219 201.871094 208.789062 200.035156 211.089844 C 198.929688 212.46875 197.277344 214.585938 196.359375 215.875 C 195.4375 217.253906 192.589844 219.464844 189.925781 221.027344 C 177.792969 227.929688 163.546875 224.15625 154.996094 211.734375 C 143.601562 195.171875 143.96875 170.972656 155.824219 154.683594 C 163.636719 144.011719 179.355469 138.859375 189.925781 143.734375 Z M 189.925781 143.734375 " clip-rule="nonzero"/></clipPath><linearGradient x1="510.17401" gradientTransform="matrix(0.0919064, -0.000992016, -0.0000393382, -0.00365604, 140.419816, 139.573847)" y1="-25044.666373" x2="510.17401" gradientUnits="userSpaceOnUse" y2="15945.911447" id="5935ffeebe"><stop stop-opacity="1" stop-color="rgb(90.99884%, 61.599731%, 23.498535%)" offset="0"/><stop stop-opacity="1" stop-color="rgb(90.99884%, 61.599731%, 23.498535%)" offset="0.5"/><stop stop-opacity="1" stop-color="rgb(90.99884%, 61.599731%, 23.498535%)" offset="0.5625"/><stop stop-opacity="1" stop-color="rgb(90.99884%, 61.599731%, 23.498535%)" offset="0.59375"/><stop stop-opacity="1" stop-color="rgb(90.99884%, 61.599731%, 23.498535%)" offset="0.609375"/><stop stop-opacity="1" stop-color="rgb(88.323975%, 61.863708%, 21.838379%)" offset="0.613281"/><stop stop-opacity="1" stop-color="rgb(85.649109%, 62.129211%, 20.179749%)" offset="0.617187"/><stop stop-opacity="1" stop-color="rgb(82.130432%, 62.478638%, 17.996216%)" offset="0.621094"/><stop stop-opacity="1" stop-color="rgb(78.611755%, 62.828064%, 15.814209%)" offset="0.625"/><stop stop-opacity="1" stop-color="rgb(75.093079%, 63.175964%, 13.630676%)" offset="0.628906"/><stop stop-opacity="1" stop-color="rgb(71.575928%, 63.525391%, 11.448669%)" offset="0.632812"/><stop stop-opacity="1" stop-color="rgb(68.057251%, 63.873291%, 9.265137%)" offset="0.636719"/><stop stop-opacity="1" stop-color="rgb(64.538574%, 64.222717%, 7.08313%)" offset="0.640625"/><stop stop-opacity="1" stop-color="rgb(61.019897%, 64.570618%, 4.899597%)" offset="0.644531"/><stop stop-opacity="1" stop-color="rgb(57.501221%, 64.920044%, 2.71759%)" offset="0.648437"/><stop stop-opacity="1" stop-color="rgb(56.599426%, 65.008545%, 2.157593%)" offset="0.652344"/><stop stop-opacity="1" stop-color="rgb(55.699158%, 65.098572%, 1.599121%)" offset="0.65625"/><stop stop-opacity="1" stop-color="rgb(55.699158%, 65.098572%, 1.599121%)" offset="0.6875"/><stop stop-opacity="1" stop-color="rgb(55.699158%, 65.098572%, 1.599121%)" offset="0.75"/><stop stop-opacity="1" stop-color="rgb(55.699158%, 65.098572%, 1.599121%)" offset="1"/></linearGradient><clipPath id="b940903d7e"><path d="M 140.566406 80.238281 L 234.316406 80.238281 L 234.316406 230.238281 L 140.566406 230.238281 Z M 140.566406 80.238281 " clip-rule="nonzero"/></clipPath></defs><g clip-path="url(#f6045ff2aa)"><g clip-path="url(#82ff5347c3)"><path fill="url(#5935ffeebe)" d="M 141.496094 231.136719 L 139.886719 81.273438 L 234.121094 80.257812 L 235.734375 230.121094 Z M 141.496094 231.136719 " fill-rule="nonzero"/></g></g><g clip-path="url(#b940903d7e)"><path stroke-linecap="butt" transform="matrix(0.0919118, 0, 0, -0.0920152, 140.56747, 230.229242)" fill="none" stroke-linejoin="miter" d="M 670.000985 1589.016538 C 639.995983 1573.012043 598.005979 1541.979454 577.010977 1521.984448 C 534.000974 1479.999181 473.990969 1366.991312 464.980968 1312.015659 C 454.015967 1247.997678 452.018467 1246.002422 426.985965 1264.002173 C 362.98096 1310.020403 303.013455 1332.987066 235.013449 1337.996431 C 139.005941 1343.982197 95.995938 1332.010665 92.000938 1298.006419 C 88.005937 1260.011662 131.015941 1179.989186 180.018445 1136.008663 C 241.00595 1080.990557 299.018455 1057.981442 396.980963 1051.995676 C 458.010968 1048.981567 479.983469 1044.014654 479.983469 1033.995925 C 479.983469 1024.019648 466.000968 1019.986685 435.995966 1019.986685 C 328.980957 1019.986685 190.005946 949.006537 124.98094 859.984185 C 54.005934 763.999666 10.018431 623.01577 10.018431 494.979807 C 10.018431 307.001279 118.01094 107.008767 254.988451 40.019129 C 320.990956 8.010138 437.015966 1.005518 509.010972 24.991035 C 549.980975 37.981421 566.003476 39.000275 602.000979 30.0004 C 677.990986 8.98654 779.013494 39.000275 858.021 105.013511 C 906.003504 145.003524 960.998509 236.021131 987.008511 317.020008 C 1015.016013 405.999908 1017.991014 551.993168 994.998512 645.006031 C 970.00851 742.985806 913.993505 846.017397 851.0085 909.016525 C 775.018494 985.006038 732.00849 1005.001044 647.985983 1005.001044 C 552.998475 1005.001044 545.008475 1019.010284 615.983481 1066.004916 C 728.01349 1139.999174 800.008496 1278.987814 800.008496 1418.995309 C 798.988496 1494.984822 764.010993 1614.020909 739.998491 1616.992566 C 732.00849 1618.987821 700.005987 1605.997435 670.000985 1589.016538 Z M 739.998491 1499.017785 C 775.018494 1352.982072 698.008487 1165.979946 575.990977 1102.980819 C 541.013474 1084.981068 530.005973 1096.018651 530.005973 1150.017903 C 530.005973 1206.01241 564.005976 1265.997428 613.98598 1301.99693 C 660.990984 1334.00592 671.020985 1355.996182 645.988483 1366.014911 C 628.010982 1373.019531 583.980978 1350.010415 545.985975 1314.987316 C 530.983474 1301.020528 517.000972 1289.982945 515.003472 1292.020653 C 505.993472 1301.99693 545.008475 1393.990938 577.010977 1438.990315 C 613.98598 1492.013165 704.000988 1564.988569 719.980989 1555.012293 C 724.018489 1551.998183 734.00599 1526.993813 739.998491 1499.017785 Z M 316.018456 1271.006793 C 369.01596 1246.978824 420.993465 1199.984192 445.983467 1154.984815 C 462.005968 1123.994679 462.983468 1118.008912 450.020967 1109.985439 C 430.980965 1096.995053 373.988461 1098.013906 330.000957 1109.985439 C 246.02095 1132.994554 137.985941 1233.988438 154.008443 1274.997304 C 161.998443 1296.987565 263.998452 1294.99231 316.018456 1271.006793 Z M 537.018474 940.006661 C 564.005976 927.992677 592.013479 902.988306 615.983481 870.002914 C 654.020984 816.980064 681.985986 807.980188 688.020986 846.993799 C 690.018487 859.007783 679.010986 886.983811 664.008484 909.992926 C 649.005983 931.983188 639.018482 952.020646 641.015983 954.992303 C 651.003483 963.992178 724.018489 940.006661 760.015992 916.021144 C 838.003499 864.993549 917.988505 738.018893 940.981007 630.020389 C 947.016008 600.983056 949.991008 526.012396 947.993508 461.994415 C 945.018508 355.991167 942.001007 339.01027 913.016005 278.9828 C 896.016004 242.006897 866.011001 193.993411 845.015999 172.003149 C 798.010995 118.980299 715.008489 78.013885 664.985985 82.004396 L 628.010982 85.018505 L 658.993484 123.013262 C 698.985987 173.998405 705.998488 197.983922 685.003486 218.997781 C 670.000985 233.983423 666.983485 233.007021 647.008483 208.002651 C 634.980982 193.017009 617.003481 170.007894 607.01598 155.998654 C 596.985979 141.013013 566.003476 116.985044 537.018474 100.004147 C 405.013463 24.991035 250.015951 65.999901 156.983443 200.998031 C 33.010933 380.995537 37.005933 643.987177 165.993444 821.013027 C 250.993451 936.992552 422.013465 992.987059 537.018474 940.006661 Z M 537.018474 940.006661 " stroke="#000000" stroke-width="10" stroke-opacity="1" stroke-miterlimit="4"/></g><g fill="#2f3335" fill-opacity="1"><g transform="translate(108.831107, 259.470204)"><g><path d="M 22.265625 -5.140625 C 22.316406 -4.285156 22.238281 -3.410156 22.03125 -2.515625 C 21.90625 -2.035156 21.6875 -1.660156 21.375 -1.390625 C 21.0625 -1.117188 20.6875 -0.972656 20.25 -0.953125 C 19.875 -0.941406 19.5 -1.054688 19.125 -1.296875 C 18.757812 -1.535156 18.53125 -1.910156 18.4375 -2.421875 C 18.113281 -3.972656 17.890625 -5.78125 17.765625 -7.84375 C 17.710938 -8.40625 17.691406 -8.96875 17.703125 -9.53125 C 17.710938 -10.09375 17.71875 -10.644531 17.71875 -11.1875 C 17.71875 -11.4375 17.71875 -11.691406 17.71875 -11.953125 C 17.726562 -12.222656 17.734375 -12.488281 17.734375 -12.75 C 17.734375 -12.882812 17.71875 -13.03125 17.6875 -13.1875 C 17.664062 -13.351562 17.617188 -13.523438 17.546875 -13.703125 L 17.296875 -14.203125 L 16.96875 -13.515625 C 16.9375 -13.429688 16.90625 -13.347656 16.875 -13.265625 C 16.84375 -13.191406 16.8125 -13.113281 16.78125 -13.03125 C 16.664062 -12.707031 16.550781 -12.390625 16.4375 -12.078125 C 16.320312 -11.765625 16.210938 -11.453125 16.109375 -11.140625 C 15.910156 -10.585938 15.71875 -10.039062 15.53125 -9.5 C 15.351562 -8.957031 15.160156 -8.421875 14.953125 -7.890625 L 14.921875 -7.796875 C 14.816406 -7.492188 14.703125 -7.1875 14.578125 -6.875 C 14.460938 -6.5625 14.320312 -6.257812 14.15625 -5.96875 C 13.695312 -5.207031 13.09375 -4.8125 12.34375 -4.78125 C 11.601562 -4.75 10.976562 -5.082031 10.46875 -5.78125 C 10.175781 -6.164062 9.921875 -6.570312 9.703125 -7 C 9.492188 -7.4375 9.289062 -7.878906 9.09375 -8.328125 C 8.875 -8.804688 8.65625 -9.289062 8.4375 -9.78125 C 8.21875 -10.28125 8.003906 -10.78125 7.796875 -11.28125 C 7.703125 -11.519531 7.597656 -11.765625 7.484375 -12.015625 C 7.367188 -12.265625 7.265625 -12.515625 7.171875 -12.765625 C 7.128906 -12.878906 7.0625 -13 6.96875 -13.125 C 6.882812 -13.25 6.769531 -13.382812 6.625 -13.53125 L 6.265625 -13.84375 L 6.125 -12.90625 C 6.101562 -12.75 6.082031 -12.585938 6.0625 -12.421875 C 6.039062 -12.253906 6.019531 -12.085938 6 -11.921875 C 5.9375 -11.316406 5.875 -10.710938 5.8125 -10.109375 C 5.75 -9.515625 5.679688 -8.910156 5.609375 -8.296875 C 5.535156 -7.453125 5.453125 -6.609375 5.359375 -5.765625 C 5.273438 -4.929688 5.1875 -4.085938 5.09375 -3.234375 C 5.070312 -2.953125 5.039062 -2.671875 5 -2.390625 C 4.957031 -2.109375 4.898438 -1.835938 4.828125 -1.578125 C 4.691406 -1.085938 4.441406 -0.695312 4.078125 -0.40625 C 3.710938 -0.113281 3.296875 0.0195312 2.828125 0 C 2.347656 -0.0195312 1.9375 -0.191406 1.59375 -0.515625 C 1.25 -0.847656 1.046875 -1.253906 0.984375 -1.734375 C 0.859375 -2.722656 0.859375 -3.625 0.984375 -4.4375 C 1.554688 -7.976562 2.203125 -11.578125 2.921875 -15.234375 C 3.085938 -16.085938 3.382812 -16.914062 3.8125 -17.71875 C 4.21875 -18.414062 4.75 -18.820312 5.40625 -18.9375 C 5.5 -18.945312 5.59375 -18.953125 5.6875 -18.953125 C 6.21875 -18.953125 6.710938 -18.75 7.171875 -18.34375 C 7.910156 -17.664062 8.6875 -16.703125 9.5 -15.453125 C 9.757812 -15.066406 10 -14.660156 10.21875 -14.234375 C 10.445312 -13.816406 10.679688 -13.390625 10.921875 -12.953125 C 11.015625 -12.742188 11.113281 -12.539062 11.21875 -12.34375 C 11.320312 -12.144531 11.429688 -11.941406 11.546875 -11.734375 L 11.8125 -11.25 L 12.03125 -11.765625 C 12.101562 -11.953125 12.175781 -12.140625 12.25 -12.328125 C 12.320312 -12.523438 12.398438 -12.71875 12.484375 -12.90625 C 12.640625 -13.34375 12.796875 -13.757812 12.953125 -14.15625 C 13.117188 -14.5625 13.289062 -14.960938 13.46875 -15.359375 C 13.863281 -16.242188 14.34375 -17.148438 14.90625 -18.078125 C 15.175781 -18.535156 15.523438 -18.96875 15.953125 -19.375 C 16.710938 -20.0625 17.488281 -20.320312 18.28125 -20.15625 C 19.082031 -20 19.691406 -19.445312 20.109375 -18.5 C 20.847656 -16.882812 21.335938 -14.882812 21.578125 -12.5 L 21.71875 -11.046875 C 21.832031 -10.078125 21.9375 -9.09375 22.03125 -8.09375 C 22.125 -7.09375 22.203125 -6.109375 22.265625 -5.140625 Z M 22.265625 -5.140625 "/></g></g></g><g fill="#2f3335" fill-opacity="1"><g transform="translate(137.007151, 259.470204)"><g><path d="M 5.71875 -14.234375 C 5.820312 -12.535156 5.804688 -10.832031 5.671875 -9.125 C 5.535156 -7.425781 5.375 -5.753906 5.1875 -4.109375 L 5.046875 -2.65625 C 4.992188 -2.320312 4.863281 -1.960938 4.65625 -1.578125 C 4.269531 -0.921875 3.757812 -0.59375 3.125 -0.59375 C 2.53125 -0.59375 2.066406 -0.898438 1.734375 -1.515625 C 1.316406 -2.265625 1.082031 -3.101562 1.03125 -4.03125 C 0.976562 -4.65625 0.953125 -5.285156 0.953125 -5.921875 C 0.953125 -6.566406 0.960938 -7.203125 0.984375 -7.828125 C 0.984375 -8.078125 0.984375 -8.332031 0.984375 -8.59375 C 0.984375 -8.863281 0.984375 -9.132812 0.984375 -9.40625 L 0.984375 -9.671875 L 0.890625 -9.671875 C 0.898438 -9.859375 0.910156 -10.050781 0.921875 -10.25 C 0.929688 -10.457031 0.9375 -10.65625 0.9375 -10.84375 C 0.96875 -11.4375 1 -12.03125 1.03125 -12.625 C 1.0625 -13.226562 1.101562 -13.835938 1.15625 -14.453125 C 1.21875 -15.203125 1.351562 -15.894531 1.5625 -16.53125 C 1.71875 -16.96875 1.96875 -17.304688 2.3125 -17.546875 C 2.65625 -17.796875 3.046875 -17.914062 3.484375 -17.90625 C 4.421875 -17.851562 5.023438 -17.390625 5.296875 -16.515625 C 5.503906 -15.859375 5.644531 -15.097656 5.71875 -14.234375 Z M 5.71875 -14.234375 "/></g></g></g><g fill="#2f3335" fill-opacity="1"><g transform="translate(148.671169, 259.470204)"><g><path d="M 12.859375 -5.78125 C 13.148438 -4.644531 13.0625 -3.628906 12.59375 -2.734375 C 12.132812 -1.835938 11.375 -1.210938 10.3125 -0.859375 C 9.132812 -0.441406 7.710938 -0.203125 6.046875 -0.140625 C 5.296875 -0.109375 4.628906 -0.28125 4.046875 -0.65625 C 3.460938 -1.03125 2.992188 -1.410156 2.640625 -1.796875 C 2.253906 -2.234375 2.015625 -2.695312 1.921875 -3.1875 C 1.835938 -3.6875 1.914062 -4.132812 2.15625 -4.53125 C 2.539062 -5.207031 3.175781 -5.546875 4.0625 -5.546875 C 4.300781 -5.546875 4.539062 -5.519531 4.78125 -5.46875 C 4.875 -5.4375 4.972656 -5.410156 5.078125 -5.390625 C 5.191406 -5.367188 5.300781 -5.335938 5.40625 -5.296875 C 5.832031 -5.171875 6.269531 -5.066406 6.71875 -4.984375 C 7.164062 -4.910156 7.640625 -4.945312 8.140625 -5.09375 L 8.921875 -5.328125 L 8.8125 -5.59375 C 8.601562 -6.09375 8.304688 -6.457031 7.921875 -6.6875 C 7.535156 -6.914062 7.132812 -7.09375 6.71875 -7.21875 C 5.070312 -7.71875 3.582031 -8.640625 2.25 -9.984375 C 1.28125 -10.972656 0.828125 -12.082031 0.890625 -13.3125 C 0.953125 -14.53125 1.503906 -15.566406 2.546875 -16.421875 C 4.523438 -18.046875 6.769531 -18.5625 9.28125 -17.96875 C 10.40625 -17.71875 11.238281 -17.148438 11.78125 -16.265625 C 11.988281 -15.898438 12.109375 -15.503906 12.140625 -15.078125 C 12.140625 -14.941406 12.125 -14.796875 12.09375 -14.640625 C 12.0625 -14.484375 11.988281 -14.363281 11.875 -14.28125 C 11.6875 -14.132812 11.390625 -14.140625 10.984375 -14.296875 C 10.503906 -14.492188 9.921875 -14.675781 9.234375 -14.84375 C 8.546875 -15.007812 7.820312 -15.003906 7.0625 -14.828125 C 6.6875 -14.753906 6.328125 -14.632812 5.984375 -14.46875 C 5.640625 -14.3125 5.328125 -14.144531 5.046875 -13.96875 C 4.703125 -13.78125 4.53125 -13.53125 4.53125 -13.21875 C 4.53125 -12.914062 4.691406 -12.660156 5.015625 -12.453125 L 5.546875 -12.140625 C 5.972656 -11.890625 6.40625 -11.640625 6.84375 -11.390625 C 7.289062 -11.140625 7.742188 -10.921875 8.203125 -10.734375 C 10.765625 -9.703125 12.316406 -8.050781 12.859375 -5.78125 Z M 12.859375 -5.78125 "/></g></g></g><g fill="#2f3335" fill-opacity="1"><g transform="translate(167.559201, 259.470204)"><g><path d="M 16.5625 -2.1875 C 16.59375 -1.507812 16.546875 -0.910156 16.421875 -0.390625 C 16.242188 0.347656 15.78125 0.765625 15.03125 0.859375 C 14.269531 0.960938 13.71875 0.675781 13.375 0 C 13.050781 -0.601562 12.863281 -1.195312 12.8125 -1.78125 C 12.769531 -2.363281 12.734375 -2.957031 12.703125 -3.5625 C 12.679688 -4.175781 12.660156 -4.78125 12.640625 -5.375 C 12.640625 -5.582031 12.632812 -5.796875 12.625 -6.015625 C 12.625 -6.234375 12.613281 -6.453125 12.59375 -6.671875 C 12.59375 -6.765625 12.59375 -6.867188 12.59375 -6.984375 C 12.59375 -7.097656 12.59375 -7.203125 12.59375 -7.296875 L 12.59375 -7.875 L 4.421875 -7.875 L 4.421875 -7.265625 C 4.421875 -7.160156 4.421875 -7.054688 4.421875 -6.953125 C 4.421875 -6.859375 4.421875 -6.765625 4.421875 -6.671875 L 4.421875 -4.984375 C 4.429688 -4.503906 4.4375 -4.019531 4.4375 -3.53125 C 4.4375 -3.050781 4.4375 -2.5625 4.4375 -2.0625 L 4.4375 -1.984375 C 4.457031 -1.828125 4.460938 -1.671875 4.453125 -1.515625 C 4.441406 -1.367188 4.429688 -1.21875 4.421875 -1.0625 C 4.367188 -0.5625 4.21875 -0.164062 3.96875 0.125 C 3.71875 0.425781 3.40625 0.578125 3.03125 0.578125 C 3.03125 0.578125 3.023438 0.578125 3.015625 0.578125 C 3.003906 0.578125 3 0.578125 3 0.578125 C 2.601562 0.578125 2.269531 0.429688 2 0.140625 C 1.738281 -0.140625 1.59375 -0.515625 1.5625 -0.984375 C 1.414062 -3.398438 1.285156 -5.617188 1.171875 -7.640625 C 1.066406 -9.671875 0.972656 -11.597656 0.890625 -13.421875 C 0.867188 -13.867188 0.898438 -14.328125 0.984375 -14.796875 C 1.066406 -15.265625 1.144531 -15.703125 1.21875 -16.109375 C 1.300781 -16.523438 1.476562 -16.851562 1.75 -17.09375 C 2.019531 -17.332031 2.34375 -17.4375 2.71875 -17.40625 C 3.0625 -17.382812 3.347656 -17.25 3.578125 -17 C 3.816406 -16.75 3.96875 -16.410156 4.03125 -15.984375 C 4.082031 -15.554688 4.125 -15.113281 4.15625 -14.65625 C 4.1875 -14.195312 4.21875 -13.742188 4.25 -13.296875 C 4.257812 -13.109375 4.269531 -12.914062 4.28125 -12.71875 C 4.289062 -12.53125 4.300781 -12.335938 4.3125 -12.140625 L 4.390625 -11.109375 L 12.578125 -11.109375 L 12.625 -12.390625 C 12.65625 -12.765625 12.675781 -13.132812 12.6875 -13.5 C 12.707031 -13.863281 12.734375 -14.226562 12.765625 -14.59375 C 12.785156 -14.914062 12.804688 -15.25 12.828125 -15.59375 C 12.847656 -15.9375 12.882812 -16.28125 12.9375 -16.625 C 13 -16.96875 13.109375 -17.289062 13.265625 -17.59375 C 13.367188 -17.769531 13.515625 -17.929688 13.703125 -18.078125 C 13.890625 -18.234375 14.160156 -18.296875 14.515625 -18.265625 C 15.066406 -18.203125 15.40625 -17.914062 15.53125 -17.40625 C 15.6875 -16.789062 15.78125 -16.125 15.8125 -15.40625 C 15.957031 -13.007812 16.09375 -10.71875 16.21875 -8.53125 C 16.351562 -6.34375 16.46875 -4.226562 16.5625 -2.1875 Z M 16.5625 -2.1875 "/></g></g></g><g fill="#2f3335" fill-opacity="1"><g transform="translate(189.97524, 259.470204)"><g><path d="M 22.265625 -5.140625 C 22.316406 -4.285156 22.238281 -3.410156 22.03125 -2.515625 C 21.90625 -2.035156 21.6875 -1.660156 21.375 -1.390625 C 21.0625 -1.117188 20.6875 -0.972656 20.25 -0.953125 C 19.875 -0.941406 19.5 -1.054688 19.125 -1.296875 C 18.757812 -1.535156 18.53125 -1.910156 18.4375 -2.421875 C 18.113281 -3.972656 17.890625 -5.78125 17.765625 -7.84375 C 17.710938 -8.40625 17.691406 -8.96875 17.703125 -9.53125 C 17.710938 -10.09375 17.71875 -10.644531 17.71875 -11.1875 C 17.71875 -11.4375 17.71875 -11.691406 17.71875 -11.953125 C 17.726562 -12.222656 17.734375 -12.488281 17.734375 -12.75 C 17.734375 -12.882812 17.71875 -13.03125 17.6875 -13.1875 C 17.664062 -13.351562 17.617188 -13.523438 17.546875 -13.703125 L 17.296875 -14.203125 L 16.96875 -13.515625 C 16.9375 -13.429688 16.90625 -13.347656 16.875 -13.265625 C 16.84375 -13.191406 16.8125 -13.113281 16.78125 -13.03125 C 16.664062 -12.707031 16.550781 -12.390625 16.4375 -12.078125 C 16.320312 -11.765625 16.210938 -11.453125 16.109375 -11.140625 C 15.910156 -10.585938 15.71875 -10.039062 15.53125 -9.5 C 15.351562 -8.957031 15.160156 -8.421875 14.953125 -7.890625 L 14.921875 -7.796875 C 14.816406 -7.492188 14.703125 -7.1875 14.578125 -6.875 C 14.460938 -6.5625 14.320312 -6.257812 14.15625 -5.96875 C 13.695312 -5.207031 13.09375 -4.8125 12.34375 -4.78125 C 11.601562 -4.75 10.976562 -5.082031 10.46875 -5.78125 C 10.175781 -6.164062 9.921875 -6.570312 9.703125 -7 C 9.492188 -7.4375 9.289062 -7.878906 9.09375 -8.328125 C 8.875 -8.804688 8.65625 -9.289062 8.4375 -9.78125 C 8.21875 -10.28125 8.003906 -10.78125 7.796875 -11.28125 C 7.703125 -11.519531 7.597656 -11.765625 7.484375 -12.015625 C 7.367188 -12.265625 7.265625 -12.515625 7.171875 -12.765625 C 7.128906 -12.878906 7.0625 -13 6.96875 -13.125 C 6.882812 -13.25 6.769531 -13.382812 6.625 -13.53125 L 6.265625 -13.84375 L 6.125 -12.90625 C 6.101562 -12.75 6.082031 -12.585938 6.0625 -12.421875 C 6.039062 -12.253906 6.019531 -12.085938 6 -11.921875 C 5.9375 -11.316406 5.875 -10.710938 5.8125 -10.109375 C 5.75 -9.515625 5.679688 -8.910156 5.609375 -8.296875 C 5.535156 -7.453125 5.453125 -6.609375 5.359375 -5.765625 C 5.273438 -4.929688 5.1875 -4.085938 5.09375 -3.234375 C 5.070312 -2.953125 5.039062 -2.671875 5 -2.390625 C 4.957031 -2.109375 4.898438 -1.835938 4.828125 -1.578125 C 4.691406 -1.085938 4.441406 -0.695312 4.078125 -0.40625 C 3.710938 -0.113281 3.296875 0.0195312 2.828125 0 C 2.347656 -0.0195312 1.9375 -0.191406 1.59375 -0.515625 C 1.25 -0.847656 1.046875 -1.253906 0.984375 -1.734375 C 0.859375 -2.722656 0.859375 -3.625 0.984375 -4.4375 C 1.554688 -7.976562 2.203125 -11.578125 2.921875 -15.234375 C 3.085938 -16.085938 3.382812 -16.914062 3.8125 -17.71875 C 4.21875 -18.414062 4.75 -18.820312 5.40625 -18.9375 C 5.5 -18.945312 5.59375 -18.953125 5.6875 -18.953125 C 6.21875 -18.953125 6.710938 -18.75 7.171875 -18.34375 C 7.910156 -17.664062 8.6875 -16.703125 9.5 -15.453125 C 9.757812 -15.066406 10 -14.660156 10.21875 -14.234375 C 10.445312 -13.816406 10.679688 -13.390625 10.921875 -12.953125 C 11.015625 -12.742188 11.113281 -12.539062 11.21875 -12.34375 C 11.320312 -12.144531 11.429688 -11.941406 11.546875 -11.734375 L 11.8125 -11.25 L 12.03125 -11.765625 C 12.101562 -11.953125 12.175781 -12.140625 12.25 -12.328125 C 12.320312 -12.523438 12.398438 -12.71875 12.484375 -12.90625 C 12.640625 -13.34375 12.796875 -13.757812 12.953125 -14.15625 C 13.117188 -14.5625 13.289062 -14.960938 13.46875 -15.359375 C 13.863281 -16.242188 14.34375 -17.148438 14.90625 -18.078125 C 15.175781 -18.535156 15.523438 -18.96875 15.953125 -19.375 C 16.710938 -20.0625 17.488281 -20.320312 18.28125 -20.15625 C 19.082031 -20 19.691406 -19.445312 20.109375 -18.5 C 20.847656 -16.882812 21.335938 -14.882812 21.578125 -12.5 L 21.71875 -11.046875 C 21.832031 -10.078125 21.9375 -9.09375 22.03125 -8.09375 C 22.125 -7.09375 22.203125 -6.109375 22.265625 -5.140625 Z M 22.265625 -5.140625 "/></g></g></g><g fill="#2f3335" fill-opacity="1"><g transform="translate(218.15129, 259.470204)"><g><path d="M 5.71875 -14.234375 C 5.820312 -12.535156 5.804688 -10.832031 5.671875 -9.125 C 5.535156 -7.425781 5.375 -5.753906 5.1875 -4.109375 L 5.046875 -2.65625 C 4.992188 -2.320312 4.863281 -1.960938 4.65625 -1.578125 C 4.269531 -0.921875 3.757812 -0.59375 3.125 -0.59375 C 2.53125 -0.59375 2.066406 -0.898438 1.734375 -1.515625 C 1.316406 -2.265625 1.082031 -3.101562 1.03125 -4.03125 C 0.976562 -4.65625 0.953125 -5.285156 0.953125 -5.921875 C 0.953125 -6.566406 0.960938 -7.203125 0.984375 -7.828125 C 0.984375 -8.078125 0.984375 -8.332031 0.984375 -8.59375 C 0.984375 -8.863281 0.984375 -9.132812 0.984375 -9.40625 L 0.984375 -9.671875 L 0.890625 -9.671875 C 0.898438 -9.859375 0.910156 -10.050781 0.921875 -10.25 C 0.929688 -10.457031 0.9375 -10.65625 0.9375 -10.84375 C 0.96875 -11.4375 1 -12.03125 1.03125 -12.625 C 1.0625 -13.226562 1.101562 -13.835938 1.15625 -14.453125 C 1.21875 -15.203125 1.351562 -15.894531 1.5625 -16.53125 C 1.71875 -16.96875 1.96875 -17.304688 2.3125 -17.546875 C 2.65625 -17.796875 3.046875 -17.914062 3.484375 -17.90625 C 4.421875 -17.851562 5.023438 -17.390625 5.296875 -16.515625 C 5.503906 -15.859375 5.644531 -15.097656 5.71875 -14.234375 Z M 5.71875 -14.234375 "/></g></g></g><g fill="#2f3335" fill-opacity="1"><g transform="translate(229.815313, 259.470204)"><g><path d="M 12.859375 -5.78125 C 13.148438 -4.644531 13.0625 -3.628906 12.59375 -2.734375 C 12.132812 -1.835938 11.375 -1.210938 10.3125 -0.859375 C 9.132812 -0.441406 7.710938 -0.203125 6.046875 -0.140625 C 5.296875 -0.109375 4.628906 -0.28125 4.046875 -0.65625 C 3.460938 -1.03125 2.992188 -1.410156 2.640625 -1.796875 C 2.253906 -2.234375 2.015625 -2.695312 1.921875 -3.1875 C 1.835938 -3.6875 1.914062 -4.132812 2.15625 -4.53125 C 2.539062 -5.207031 3.175781 -5.546875 4.0625 -5.546875 C 4.300781 -5.546875 4.539062 -5.519531 4.78125 -5.46875 C 4.875 -5.4375 4.972656 -5.410156 5.078125 -5.390625 C 5.191406 -5.367188 5.300781 -5.335938 5.40625 -5.296875 C 5.832031 -5.171875 6.269531 -5.066406 6.71875 -4.984375 C 7.164062 -4.910156 7.640625 -4.945312 8.140625 -5.09375 L 8.921875 -5.328125 L 8.8125 -5.59375 C 8.601562 -6.09375 8.304688 -6.457031 7.921875 -6.6875 C 7.535156 -6.914062 7.132812 -7.09375 6.71875 -7.21875 C 5.070312 -7.71875 3.582031 -8.640625 2.25 -9.984375 C 1.28125 -10.972656 0.828125 -12.082031 0.890625 -13.3125 C 0.953125 -14.53125 1.503906 -15.566406 2.546875 -16.421875 C 4.523438 -18.046875 6.769531 -18.5625 9.28125 -17.96875 C 10.40625 -17.71875 11.238281 -17.148438 11.78125 -16.265625 C 11.988281 -15.898438 12.109375 -15.503906 12.140625 -15.078125 C 12.140625 -14.941406 12.125 -14.796875 12.09375 -14.640625 C 12.0625 -14.484375 11.988281 -14.363281 11.875 -14.28125 C 11.6875 -14.132812 11.390625 -14.140625 10.984375 -14.296875 C 10.503906 -14.492188 9.921875 -14.675781 9.234375 -14.84375 C 8.546875 -15.007812 7.820312 -15.003906 7.0625 -14.828125 C 6.6875 -14.753906 6.328125 -14.632812 5.984375 -14.46875 C 5.640625 -14.3125 5.328125 -14.144531 5.046875 -13.96875 C 4.703125 -13.78125 4.53125 -13.53125 4.53125 -13.21875 C 4.53125 -12.914062 4.691406 -12.660156 5.015625 -12.453125 L 5.546875 -12.140625 C 5.972656 -11.890625 6.40625 -11.640625 6.84375 -11.390625 C 7.289062 -11.140625 7.742188 -10.921875 8.203125 -10.734375 C 10.765625 -9.703125 12.316406 -8.050781 12.859375 -5.78125 Z M 12.859375 -5.78125 "/></g></g></g><g fill="#2f3335" fill-opacity="1"><g transform="translate(248.703351, 259.470204)"><g><path d="M 16.5625 -2.1875 C 16.59375 -1.507812 16.546875 -0.910156 16.421875 -0.390625 C 16.242188 0.347656 15.78125 0.765625 15.03125 0.859375 C 14.269531 0.960938 13.71875 0.675781 13.375 0 C 13.050781 -0.601562 12.863281 -1.195312 12.8125 -1.78125 C 12.769531 -2.363281 12.734375 -2.957031 12.703125 -3.5625 C 12.679688 -4.175781 12.660156 -4.78125 12.640625 -5.375 C 12.640625 -5.582031 12.632812 -5.796875 12.625 -6.015625 C 12.625 -6.234375 12.613281 -6.453125 12.59375 -6.671875 C 12.59375 -6.765625 12.59375 -6.867188 12.59375 -6.984375 C 12.59375 -7.097656 12.59375 -7.203125 12.59375 -7.296875 L 12.59375 -7.875 L 4.421875 -7.875 L 4.421875 -7.265625 C 4.421875 -7.160156 4.421875 -7.054688 4.421875 -6.953125 C 4.421875 -6.859375 4.421875 -6.765625 4.421875 -6.671875 L 4.421875 -4.984375 C 4.429688 -4.503906 4.4375 -4.019531 4.4375 -3.53125 C 4.4375 -3.050781 4.4375 -2.5625 4.4375 -2.0625 L 4.4375 -1.984375 C 4.457031 -1.828125 4.460938 -1.671875 4.453125 -1.515625 C 4.441406 -1.367188 4.429688 -1.21875 4.421875 -1.0625 C 4.367188 -0.5625 4.21875 -0.164062 3.96875 0.125 C 3.71875 0.425781 3.40625 0.578125 3.03125 0.578125 C 3.03125 0.578125 3.023438 0.578125 3.015625 0.578125 C 3.003906 0.578125 3 0.578125 3 0.578125 C 2.601562 0.578125 2.269531 0.429688 2 0.140625 C 1.738281 -0.140625 1.59375 -0.515625 1.5625 -0.984375 C 1.414062 -3.398438 1.285156 -5.617188 1.171875 -7.640625 C 1.066406 -9.671875 0.972656 -11.597656 0.890625 -13.421875 C 0.867188 -13.867188 0.898438 -14.328125 0.984375 -14.796875 C 1.066406 -15.265625 1.144531 -15.703125 1.21875 -16.109375 C 1.300781 -16.523438 1.476562 -16.851562 1.75 -17.09375 C 2.019531 -17.332031 2.34375 -17.4375 2.71875 -17.40625 C 3.0625 -17.382812 3.347656 -17.25 3.578125 -17 C 3.816406 -16.75 3.96875 -16.410156 4.03125 -15.984375 C 4.082031 -15.554688 4.125 -15.113281 4.15625 -14.65625 C 4.1875 -14.195312 4.21875 -13.742188 4.25 -13.296875 C 4.257812 -13.109375 4.269531 -12.914062 4.28125 -12.71875 C 4.289062 -12.53125 4.300781 -12.335938 4.3125 -12.140625 L 4.390625 -11.109375 L 12.578125 -11.109375 L 12.625 -12.390625 C 12.65625 -12.765625 12.675781 -13.132812 12.6875 -13.5 C 12.707031 -13.863281 12.734375 -14.226562 12.765625 -14.59375 C 12.785156 -14.914062 12.804688 -15.25 12.828125 -15.59375 C 12.847656 -15.9375 12.882812 -16.28125 12.9375 -16.625 C 13 -16.96875 13.109375 -17.289062 13.265625 -17.59375 C 13.367188 -17.769531 13.515625 -17.929688 13.703125 -18.078125 C 13.890625 -18.234375 14.160156 -18.296875 14.515625 -18.265625 C 15.066406 -18.203125 15.40625 -17.914062 15.53125 -17.40625 C 15.6875 -16.789062 15.78125 -16.125 15.8125 -15.40625 C 15.957031 -13.007812 16.09375 -10.71875 16.21875 -8.53125 C 16.351562 -6.34375 16.46875 -4.226562 16.5625 -2.1875 Z M 16.5625 -2.1875 "/></g></g></g><g fill="#2f3335" fill-opacity="1"><g transform="translate(117.200959, 277.808713)"><g><path d="M 1.40625 -4.859375 C 1.425781 -4.859375 1.453125 -4.859375 1.484375 -4.859375 C 1.484375 -4.347656 1.476562 -3.835938 1.46875 -3.328125 C 1.46875 -2.816406 1.472656 -2.304688 1.484375 -1.796875 C 1.492188 -1.578125 1.515625 -1.421875 1.546875 -1.328125 C 1.585938 -1.234375 1.660156 -1.179688 1.765625 -1.171875 C 1.878906 -1.160156 2.039062 -1.171875 2.25 -1.203125 C 2.550781 -1.253906 2.851562 -1.304688 3.15625 -1.359375 C 3.457031 -1.410156 3.757812 -1.453125 4.0625 -1.484375 C 4.28125 -1.515625 4.457031 -1.484375 4.59375 -1.390625 C 4.726562 -1.304688 4.8125 -1.1875 4.84375 -1.03125 C 4.875 -0.863281 4.835938 -0.707031 4.734375 -0.5625 C 4.628906 -0.414062 4.472656 -0.320312 4.265625 -0.28125 C 3.835938 -0.21875 3.410156 -0.15625 2.984375 -0.09375 C 2.566406 -0.0390625 2.144531 -0.0078125 1.71875 0 C 1.28125 0.0078125 0.976562 -0.09375 0.8125 -0.3125 C 0.65625 -0.539062 0.550781 -0.914062 0.5 -1.4375 C 0.476562 -1.613281 0.460938 -1.789062 0.453125 -1.96875 C 0.453125 -2.144531 0.453125 -2.328125 0.453125 -2.515625 C 0.484375 -3.453125 0.515625 -4.394531 0.546875 -5.34375 C 0.585938 -6.289062 0.625 -7.234375 0.65625 -8.171875 C 0.664062 -8.234375 0.675781 -8.296875 0.6875 -8.359375 C 0.695312 -8.421875 0.71875 -8.476562 0.75 -8.53125 C 0.78125 -8.582031 0.820312 -8.628906 0.875 -8.671875 C 0.925781 -8.710938 0.972656 -8.726562 1.015625 -8.71875 C 1.078125 -8.71875 1.132812 -8.691406 1.1875 -8.640625 C 1.25 -8.597656 1.289062 -8.550781 1.3125 -8.5 C 1.34375 -8.394531 1.363281 -8.289062 1.375 -8.1875 C 1.394531 -8.082031 1.40625 -7.976562 1.40625 -7.875 C 1.414062 -7.363281 1.414062 -6.859375 1.40625 -6.359375 C 1.40625 -5.859375 1.40625 -5.359375 1.40625 -4.859375 Z M 1.40625 -4.859375 "/></g></g></g><g fill="#2f3335" fill-opacity="1"><g transform="translate(128.630743, 277.808713)"><g><path d="M 6.953125 -1.140625 C 6.890625 -1.359375 6.828125 -1.578125 6.765625 -1.796875 C 6.710938 -2.015625 6.65625 -2.242188 6.59375 -2.484375 C 5.875 -2.441406 5.164062 -2.394531 4.46875 -2.34375 C 3.769531 -2.300781 3.078125 -2.257812 2.390625 -2.21875 C 2.316406 -2.207031 2.242188 -2.171875 2.171875 -2.109375 C 2.097656 -2.054688 2.039062 -1.992188 2 -1.921875 C 1.851562 -1.671875 1.710938 -1.410156 1.578125 -1.140625 C 1.441406 -0.867188 1.304688 -0.601562 1.171875 -0.34375 C 1.117188 -0.25 1.054688 -0.15625 0.984375 -0.0625 C 0.910156 0.0195312 0.8125 0.0234375 0.6875 -0.046875 C 0.613281 -0.0859375 0.550781 -0.164062 0.5 -0.28125 C 0.445312 -0.40625 0.429688 -0.515625 0.453125 -0.609375 C 0.484375 -0.796875 0.535156 -0.976562 0.609375 -1.15625 C 0.691406 -1.34375 0.769531 -1.53125 0.84375 -1.71875 C 0.851562 -1.75 0.863281 -1.773438 0.875 -1.796875 C 0.894531 -1.816406 0.90625 -1.84375 0.90625 -1.875 C 0.863281 -2.070312 0.875 -2.253906 0.9375 -2.421875 C 1 -2.597656 1.082031 -2.757812 1.1875 -2.90625 C 1.300781 -3.050781 1.410156 -3.195312 1.515625 -3.34375 C 1.617188 -3.5 1.695312 -3.660156 1.75 -3.828125 C 1.882812 -4.316406 2.039062 -4.796875 2.21875 -5.265625 C 2.40625 -5.742188 2.585938 -6.21875 2.765625 -6.6875 C 2.867188 -6.9375 2.972656 -7.179688 3.078125 -7.421875 C 3.191406 -7.660156 3.332031 -7.878906 3.5 -8.078125 C 3.84375 -8.523438 4.207031 -8.738281 4.59375 -8.71875 C 4.976562 -8.695312 5.320312 -8.457031 5.625 -8 C 5.8125 -7.695312 5.984375 -7.378906 6.140625 -7.046875 C 6.304688 -6.722656 6.457031 -6.390625 6.59375 -6.046875 C 6.820312 -5.460938 7.039062 -4.875 7.25 -4.28125 C 7.46875 -3.6875 7.675781 -3.09375 7.875 -2.5 C 7.9375 -2.3125 7.984375 -2.117188 8.015625 -1.921875 C 8.054688 -1.734375 8.085938 -1.539062 8.109375 -1.34375 C 8.117188 -1.175781 8.085938 -1.023438 8.015625 -0.890625 C 7.953125 -0.753906 7.828125 -0.675781 7.640625 -0.65625 C 7.441406 -0.613281 7.289062 -0.644531 7.1875 -0.75 C 7.082031 -0.851562 7.003906 -0.984375 6.953125 -1.140625 Z M 4.484375 -7.53125 C 4.203125 -7.070312 3.96875 -6.601562 3.78125 -6.125 C 3.601562 -5.644531 3.429688 -5.160156 3.265625 -4.671875 C 3.097656 -4.191406 2.882812 -3.726562 2.625 -3.28125 C 3.238281 -3.34375 3.835938 -3.398438 4.421875 -3.453125 C 5.003906 -3.503906 5.59375 -3.554688 6.1875 -3.609375 C 6.019531 -4.035156 5.863281 -4.46875 5.71875 -4.90625 C 5.570312 -5.351562 5.398438 -5.796875 5.203125 -6.234375 C 5.015625 -6.671875 4.773438 -7.101562 4.484375 -7.53125 Z M 4.484375 -7.53125 "/></g></g></g><g fill="#2f3335" fill-opacity="1"><g transform="translate(143.314221, 277.808713)"><g><path d="M 6.828125 -1.703125 C 6.847656 -1.710938 6.867188 -1.71875 6.890625 -1.71875 C 6.910156 -1.726562 6.929688 -1.734375 6.953125 -1.734375 C 6.972656 -2.265625 6.992188 -2.789062 7.015625 -3.3125 C 7.046875 -3.84375 7.0625 -4.375 7.0625 -4.90625 C 7.050781 -5.34375 7.023438 -5.773438 6.984375 -6.203125 C 6.953125 -6.640625 6.921875 -7.082031 6.890625 -7.53125 C 6.890625 -7.664062 6.894531 -7.800781 6.90625 -7.9375 C 6.925781 -8.082031 6.957031 -8.21875 7 -8.34375 C 7.03125 -8.46875 7.085938 -8.566406 7.171875 -8.640625 C 7.253906 -8.710938 7.367188 -8.738281 7.515625 -8.71875 C 7.648438 -8.6875 7.75 -8.628906 7.8125 -8.546875 C 7.875 -8.460938 7.898438 -8.351562 7.890625 -8.21875 C 7.890625 -7.46875 7.90625 -6.71875 7.9375 -5.96875 C 7.96875 -5.21875 7.988281 -4.472656 8 -3.734375 C 8.007812 -2.992188 7.96875 -2.25 7.875 -1.5 C 7.863281 -1.375 7.851562 -1.242188 7.84375 -1.109375 C 7.832031 -0.972656 7.804688 -0.847656 7.765625 -0.734375 C 7.691406 -0.484375 7.554688 -0.320312 7.359375 -0.25 C 7.160156 -0.175781 6.953125 -0.210938 6.734375 -0.359375 C 6.597656 -0.429688 6.472656 -0.539062 6.359375 -0.6875 C 5.703125 -1.445312 5.046875 -2.207031 4.390625 -2.96875 C 3.742188 -3.738281 3.097656 -4.507812 2.453125 -5.28125 C 2.304688 -5.457031 2.164062 -5.640625 2.03125 -5.828125 C 1.894531 -6.023438 1.742188 -6.234375 1.578125 -6.453125 C 1.578125 -6.359375 1.570312 -6.28125 1.5625 -6.21875 C 1.5625 -6.164062 1.5625 -6.113281 1.5625 -6.0625 C 1.550781 -5.175781 1.539062 -4.296875 1.53125 -3.421875 C 1.519531 -2.546875 1.507812 -1.671875 1.5 -0.796875 C 1.5 -0.734375 1.5 -0.671875 1.5 -0.609375 C 1.5 -0.554688 1.492188 -0.5 1.484375 -0.4375 C 1.453125 -0.320312 1.40625 -0.222656 1.34375 -0.140625 C 1.28125 -0.0546875 1.171875 -0.0078125 1.015625 0 C 0.890625 0.0078125 0.785156 -0.0195312 0.703125 -0.09375 C 0.617188 -0.164062 0.5625 -0.265625 0.53125 -0.390625 C 0.5 -0.492188 0.472656 -0.601562 0.453125 -0.71875 C 0.441406 -0.84375 0.441406 -0.957031 0.453125 -1.0625 C 0.492188 -2.082031 0.535156 -3.101562 0.578125 -4.125 C 0.628906 -5.144531 0.675781 -6.164062 0.71875 -7.1875 C 0.726562 -7.332031 0.757812 -7.484375 0.8125 -7.640625 C 0.851562 -7.742188 0.914062 -7.816406 1 -7.859375 C 1.082031 -7.910156 1.171875 -7.90625 1.265625 -7.84375 C 1.421875 -7.757812 1.578125 -7.664062 1.734375 -7.5625 C 1.898438 -7.46875 2.046875 -7.351562 2.171875 -7.21875 C 2.859375 -6.4375 3.535156 -5.648438 4.203125 -4.859375 C 4.878906 -4.066406 5.550781 -3.273438 6.21875 -2.484375 C 6.332031 -2.359375 6.4375 -2.226562 6.53125 -2.09375 C 6.625 -1.96875 6.722656 -1.835938 6.828125 -1.703125 Z M 6.828125 -1.703125 "/></g></g></g><g fill="#2f3335" fill-opacity="1"><g transform="translate(157.887776, 277.808713)"><g><path d="M 1.21875 -7.078125 C 1.21875 -7.148438 1.21875 -7.222656 1.21875 -7.296875 C 1.21875 -7.378906 1.21875 -7.46875 1.21875 -7.5625 C 1.101562 -7.570312 0.984375 -7.578125 0.859375 -7.578125 C 0.742188 -7.585938 0.648438 -7.617188 0.578125 -7.671875 C 0.503906 -7.734375 0.460938 -7.84375 0.453125 -8 C 0.441406 -8.144531 0.472656 -8.25 0.546875 -8.3125 C 0.617188 -8.382812 0.707031 -8.429688 0.8125 -8.453125 C 0.925781 -8.484375 1.035156 -8.515625 1.140625 -8.546875 C 3.148438 -9.003906 4.90625 -8.523438 6.40625 -7.109375 C 6.769531 -6.773438 7.046875 -6.394531 7.234375 -5.96875 C 7.421875 -5.550781 7.519531 -5.117188 7.53125 -4.671875 C 7.550781 -4.222656 7.472656 -3.785156 7.296875 -3.359375 C 7.128906 -2.941406 6.867188 -2.554688 6.515625 -2.203125 C 5.984375 -1.671875 5.390625 -1.226562 4.734375 -0.875 C 4.085938 -0.53125 3.398438 -0.257812 2.671875 -0.0625 C 2.515625 -0.0078125 2.347656 0.0078125 2.171875 0 C 1.992188 0 1.828125 -0.0078125 1.671875 -0.03125 C 1.453125 -0.0625 1.296875 -0.15625 1.203125 -0.3125 C 1.117188 -0.46875 1.109375 -0.65625 1.171875 -0.875 C 1.222656 -1.050781 1.25 -1.21875 1.25 -1.375 C 1.25 -2.332031 1.242188 -3.285156 1.234375 -4.234375 C 1.222656 -5.179688 1.21875 -6.128906 1.21875 -7.078125 Z M 2.140625 -6.96875 C 2.160156 -6.34375 2.160156 -5.71875 2.140625 -5.09375 C 2.128906 -4.46875 2.132812 -3.835938 2.15625 -3.203125 C 2.175781 -2.578125 2.265625 -1.945312 2.421875 -1.3125 C 2.828125 -1.46875 3.222656 -1.632812 3.609375 -1.8125 C 4.003906 -2 4.378906 -2.203125 4.734375 -2.421875 C 5.097656 -2.648438 5.429688 -2.925781 5.734375 -3.25 C 5.960938 -3.5 6.117188 -3.785156 6.203125 -4.109375 C 6.296875 -4.441406 6.3125 -4.769531 6.25 -5.09375 C 6.195312 -5.425781 6.078125 -5.71875 5.890625 -5.96875 C 5.660156 -6.25 5.410156 -6.503906 5.140625 -6.734375 C 4.867188 -6.960938 4.5625 -7.140625 4.21875 -7.265625 C 3.894531 -7.390625 3.5625 -7.492188 3.21875 -7.578125 C 2.875 -7.660156 2.515625 -7.691406 2.140625 -7.671875 C 2.140625 -7.535156 2.140625 -7.410156 2.140625 -7.296875 C 2.140625 -7.191406 2.140625 -7.082031 2.140625 -6.96875 Z M 2.140625 -6.96875 "/></g></g></g><g fill="#2f3335" fill-opacity="1"><g transform="translate(171.999656, 277.808713)"><g><path d="M 5.390625 -2.265625 C 5.273438 -1.835938 5.0625 -1.453125 4.75 -1.109375 C 4.445312 -0.765625 4.082031 -0.488281 3.65625 -0.28125 C 3.238281 -0.0820312 2.789062 0.0078125 2.3125 0 C 1.945312 -0.0078125 1.601562 -0.09375 1.28125 -0.25 C 0.957031 -0.414062 0.703125 -0.691406 0.515625 -1.078125 C 0.484375 -1.160156 0.460938 -1.257812 0.453125 -1.375 C 0.441406 -1.488281 0.460938 -1.578125 0.515625 -1.640625 C 0.554688 -1.703125 0.632812 -1.734375 0.75 -1.734375 C 0.863281 -1.742188 0.96875 -1.742188 1.0625 -1.734375 C 1.132812 -1.734375 1.207031 -1.710938 1.28125 -1.671875 C 1.351562 -1.640625 1.425781 -1.601562 1.5 -1.5625 C 1.769531 -1.375 2.078125 -1.285156 2.421875 -1.296875 C 2.773438 -1.304688 3.113281 -1.421875 3.4375 -1.640625 C 3.757812 -1.859375 4.007812 -2.164062 4.1875 -2.5625 C 4.257812 -2.726562 4.269531 -2.882812 4.21875 -3.03125 C 4.175781 -3.175781 4.078125 -3.289062 3.921875 -3.375 C 3.773438 -3.445312 3.625 -3.503906 3.46875 -3.546875 C 3.3125 -3.597656 3.15625 -3.648438 3 -3.703125 C 2.84375 -3.742188 2.6875 -3.773438 2.53125 -3.796875 C 2.382812 -3.828125 2.234375 -3.863281 2.078125 -3.90625 C 1.515625 -4.070312 1.101562 -4.367188 0.84375 -4.796875 C 0.59375 -5.234375 0.53125 -5.738281 0.65625 -6.3125 C 0.75 -6.757812 0.921875 -7.15625 1.171875 -7.5 C 1.429688 -7.851562 1.753906 -8.15625 2.140625 -8.40625 C 2.421875 -8.59375 2.722656 -8.695312 3.046875 -8.71875 C 3.378906 -8.738281 3.691406 -8.675781 3.984375 -8.53125 C 4.285156 -8.394531 4.523438 -8.191406 4.703125 -7.921875 C 4.753906 -7.847656 4.78125 -7.765625 4.78125 -7.671875 C 4.78125 -7.578125 4.78125 -7.484375 4.78125 -7.390625 C 4.707031 -7.398438 4.628906 -7.40625 4.546875 -7.40625 C 4.460938 -7.40625 4.390625 -7.421875 4.328125 -7.453125 C 4.148438 -7.554688 3.972656 -7.644531 3.796875 -7.71875 C 3.617188 -7.789062 3.429688 -7.8125 3.234375 -7.78125 C 3.148438 -7.769531 3.0625 -7.753906 2.96875 -7.734375 C 2.875 -7.722656 2.789062 -7.691406 2.71875 -7.640625 C 2.425781 -7.429688 2.1875 -7.1875 2 -6.90625 C 1.820312 -6.632812 1.71875 -6.320312 1.6875 -5.96875 C 1.632812 -5.457031 1.84375 -5.132812 2.3125 -5 C 2.519531 -4.945312 2.726562 -4.898438 2.9375 -4.859375 C 3.144531 -4.816406 3.347656 -4.769531 3.546875 -4.71875 C 3.972656 -4.601562 4.351562 -4.4375 4.6875 -4.21875 C 5.019531 -4 5.25 -3.660156 5.375 -3.203125 C 5.414062 -3.054688 5.4375 -2.898438 5.4375 -2.734375 C 5.445312 -2.566406 5.429688 -2.410156 5.390625 -2.265625 Z M 5.390625 -2.265625 "/></g></g></g><g fill="#2f3335" fill-opacity="1"><g transform="translate(184.023013, 277.808713)"><g><path d="M 5.21875 -0.09375 C 5.09375 -0.0625 4.957031 -0.0390625 4.8125 -0.03125 C 4.675781 -0.0195312 4.539062 -0.0078125 4.40625 0 C 4.03125 0.0078125 3.6875 -0.046875 3.375 -0.171875 C 3.0625 -0.296875 2.753906 -0.453125 2.453125 -0.640625 C 1.890625 -0.972656 1.453125 -1.378906 1.140625 -1.859375 C 0.835938 -2.335938 0.632812 -2.84375 0.53125 -3.375 C 0.425781 -3.914062 0.421875 -4.457031 0.515625 -5 C 0.609375 -5.539062 0.78125 -6.046875 1.03125 -6.515625 C 1.289062 -6.992188 1.617188 -7.398438 2.015625 -7.734375 C 2.148438 -7.835938 2.285156 -7.941406 2.421875 -8.046875 C 2.566406 -8.148438 2.710938 -8.25 2.859375 -8.34375 C 3.273438 -8.601562 3.695312 -8.722656 4.125 -8.703125 C 4.550781 -8.691406 4.976562 -8.578125 5.40625 -8.359375 C 5.457031 -8.328125 5.515625 -8.289062 5.578125 -8.25 C 5.640625 -8.207031 5.6875 -8.15625 5.71875 -8.09375 C 5.75 -8.039062 5.769531 -7.96875 5.78125 -7.875 C 5.800781 -7.789062 5.796875 -7.722656 5.765625 -7.671875 C 5.734375 -7.617188 5.675781 -7.582031 5.59375 -7.5625 C 5.507812 -7.550781 5.429688 -7.535156 5.359375 -7.515625 C 5.335938 -7.503906 5.316406 -7.503906 5.296875 -7.515625 C 5.285156 -7.523438 5.273438 -7.535156 5.265625 -7.546875 C 4.648438 -7.773438 4.109375 -7.789062 3.640625 -7.59375 C 3.171875 -7.394531 2.753906 -7.066406 2.390625 -6.609375 C 1.921875 -6.023438 1.644531 -5.410156 1.5625 -4.765625 C 1.488281 -4.128906 1.613281 -3.472656 1.9375 -2.796875 C 2.039062 -2.578125 2.191406 -2.367188 2.390625 -2.171875 C 2.597656 -1.972656 2.835938 -1.800781 3.109375 -1.65625 C 3.378906 -1.507812 3.648438 -1.394531 3.921875 -1.3125 C 4.203125 -1.238281 4.46875 -1.210938 4.71875 -1.234375 C 4.9375 -1.242188 5.15625 -1.273438 5.375 -1.328125 C 5.59375 -1.378906 5.804688 -1.425781 6.015625 -1.46875 C 6.078125 -1.476562 6.144531 -1.492188 6.21875 -1.515625 C 6.300781 -1.535156 6.367188 -1.535156 6.421875 -1.515625 C 6.503906 -1.503906 6.585938 -1.472656 6.671875 -1.421875 C 6.765625 -1.378906 6.828125 -1.328125 6.859375 -1.265625 C 6.898438 -1.191406 6.910156 -1.097656 6.890625 -0.984375 C 6.878906 -0.878906 6.847656 -0.796875 6.796875 -0.734375 C 6.734375 -0.648438 6.648438 -0.578125 6.546875 -0.515625 C 6.453125 -0.453125 6.359375 -0.40625 6.265625 -0.375 C 6.097656 -0.3125 5.925781 -0.253906 5.75 -0.203125 C 5.570312 -0.160156 5.394531 -0.125 5.21875 -0.09375 Z M 5.21875 -0.09375 "/></g></g></g><g fill="#2f3335" fill-opacity="1"><g transform="translate(197.497343, 277.808713)"><g><path d="M 6.953125 -1.140625 C 6.890625 -1.359375 6.828125 -1.578125 6.765625 -1.796875 C 6.710938 -2.015625 6.65625 -2.242188 6.59375 -2.484375 C 5.875 -2.441406 5.164062 -2.394531 4.46875 -2.34375 C 3.769531 -2.300781 3.078125 -2.257812 2.390625 -2.21875 C 2.316406 -2.207031 2.242188 -2.171875 2.171875 -2.109375 C 2.097656 -2.054688 2.039062 -1.992188 2 -1.921875 C 1.851562 -1.671875 1.710938 -1.410156 1.578125 -1.140625 C 1.441406 -0.867188 1.304688 -0.601562 1.171875 -0.34375 C 1.117188 -0.25 1.054688 -0.15625 0.984375 -0.0625 C 0.910156 0.0195312 0.8125 0.0234375 0.6875 -0.046875 C 0.613281 -0.0859375 0.550781 -0.164062 0.5 -0.28125 C 0.445312 -0.40625 0.429688 -0.515625 0.453125 -0.609375 C 0.484375 -0.796875 0.535156 -0.976562 0.609375 -1.15625 C 0.691406 -1.34375 0.769531 -1.53125 0.84375 -1.71875 C 0.851562 -1.75 0.863281 -1.773438 0.875 -1.796875 C 0.894531 -1.816406 0.90625 -1.84375 0.90625 -1.875 C 0.863281 -2.070312 0.875 -2.253906 0.9375 -2.421875 C 1 -2.597656 1.082031 -2.757812 1.1875 -2.90625 C 1.300781 -3.050781 1.410156 -3.195312 1.515625 -3.34375 C 1.617188 -3.5 1.695312 -3.660156 1.75 -3.828125 C 1.882812 -4.316406 2.039062 -4.796875 2.21875 -5.265625 C 2.40625 -5.742188 2.585938 -6.21875 2.765625 -6.6875 C 2.867188 -6.9375 2.972656 -7.179688 3.078125 -7.421875 C 3.191406 -7.660156 3.332031 -7.878906 3.5 -8.078125 C 3.84375 -8.523438 4.207031 -8.738281 4.59375 -8.71875 C 4.976562 -8.695312 5.320312 -8.457031 5.625 -8 C 5.8125 -7.695312 5.984375 -7.378906 6.140625 -7.046875 C 6.304688 -6.722656 6.457031 -6.390625 6.59375 -6.046875 C 6.820312 -5.460938 7.039062 -4.875 7.25 -4.28125 C 7.46875 -3.6875 7.675781 -3.09375 7.875 -2.5 C 7.9375 -2.3125 7.984375 -2.117188 8.015625 -1.921875 C 8.054688 -1.734375 8.085938 -1.539062 8.109375 -1.34375 C 8.117188 -1.175781 8.085938 -1.023438 8.015625 -0.890625 C 7.953125 -0.753906 7.828125 -0.675781 7.640625 -0.65625 C 7.441406 -0.613281 7.289062 -0.644531 7.1875 -0.75 C 7.082031 -0.851562 7.003906 -0.984375 6.953125 -1.140625 Z M 4.484375 -7.53125 C 4.203125 -7.070312 3.96875 -6.601562 3.78125 -6.125 C 3.601562 -5.644531 3.429688 -5.160156 3.265625 -4.671875 C 3.097656 -4.191406 2.882812 -3.726562 2.625 -3.28125 C 3.238281 -3.34375 3.835938 -3.398438 4.421875 -3.453125 C 5.003906 -3.503906 5.59375 -3.554688 6.1875 -3.609375 C 6.019531 -4.035156 5.863281 -4.46875 5.71875 -4.90625 C 5.570312 -5.351562 5.398438 -5.796875 5.203125 -6.234375 C 5.015625 -6.671875 4.773438 -7.101562 4.484375 -7.53125 Z M 4.484375 -7.53125 "/></g></g></g><g fill="#2f3335" fill-opacity="1"><g transform="translate(212.180821, 277.808713)"><g><path d="M 6.46875 -7.0625 C 6.78125 -6.3125 6.847656 -5.644531 6.671875 -5.0625 C 6.492188 -4.476562 6.070312 -3.945312 5.40625 -3.46875 C 4.195312 -2.632812 2.929688 -2.460938 1.609375 -2.953125 L 1.46875 -3 L 1.46875 -2.296875 C 1.46875 -2.066406 1.46875 -1.835938 1.46875 -1.609375 C 1.46875 -1.378906 1.46875 -1.148438 1.46875 -0.921875 C 1.46875 -0.890625 1.46875 -0.859375 1.46875 -0.828125 C 1.46875 -0.796875 1.46875 -0.757812 1.46875 -0.71875 C 1.46875 -0.675781 1.46875 -0.628906 1.46875 -0.578125 C 1.476562 -0.523438 1.476562 -0.472656 1.46875 -0.421875 C 1.445312 -0.210938 1.390625 -0.0859375 1.296875 -0.046875 C 1.203125 -0.015625 1.132812 0 1.09375 0 C 0.945312 0.0078125 0.84375 -0.0234375 0.78125 -0.109375 C 0.726562 -0.203125 0.695312 -0.296875 0.6875 -0.390625 C 0.65625 -0.660156 0.632812 -0.929688 0.625 -1.203125 C 0.625 -1.484375 0.625 -1.757812 0.625 -2.03125 C 0.625 -2.15625 0.625 -2.273438 0.625 -2.390625 C 0.625 -2.503906 0.625 -2.617188 0.625 -2.734375 C 0.613281 -3.109375 0.601562 -3.476562 0.59375 -3.84375 C 0.582031 -4.21875 0.5625 -4.59375 0.53125 -4.96875 C 0.507812 -5.445312 0.488281 -5.929688 0.46875 -6.421875 C 0.445312 -6.921875 0.441406 -7.414062 0.453125 -7.90625 C 0.453125 -8.09375 0.484375 -8.210938 0.546875 -8.265625 C 0.617188 -8.316406 0.691406 -8.34375 0.765625 -8.34375 C 0.765625 -8.34375 0.769531 -8.34375 0.78125 -8.34375 C 0.851562 -8.34375 0.921875 -8.316406 0.984375 -8.265625 C 1.046875 -8.222656 1.085938 -8.109375 1.109375 -7.921875 L 1.125 -7.84375 L 1.171875 -7.828125 C 1.210938 -7.796875 1.253906 -7.789062 1.296875 -7.8125 C 1.335938 -7.84375 1.394531 -7.882812 1.46875 -7.9375 C 1.613281 -8.039062 1.835938 -8.175781 2.140625 -8.34375 C 2.453125 -8.519531 2.847656 -8.628906 3.328125 -8.671875 C 4.066406 -8.773438 4.707031 -8.6875 5.25 -8.40625 C 5.800781 -8.125 6.207031 -7.675781 6.46875 -7.0625 Z M 5.625 -5.4375 C 5.695312 -6.375 5.378906 -7.046875 4.671875 -7.453125 C 4.347656 -7.648438 3.988281 -7.742188 3.59375 -7.734375 C 3.207031 -7.722656 2.847656 -7.613281 2.515625 -7.40625 C 2.304688 -7.28125 2.144531 -7.15625 2.03125 -7.03125 C 1.914062 -6.914062 1.828125 -6.769531 1.765625 -6.59375 C 1.703125 -6.425781 1.648438 -6.207031 1.609375 -5.9375 C 1.609375 -5.9375 1.601562 -5.875 1.59375 -5.75 C 1.59375 -5.625 1.585938 -5.46875 1.578125 -5.28125 C 1.578125 -5.09375 1.578125 -4.90625 1.578125 -4.71875 C 1.578125 -4.53125 1.582031 -4.367188 1.59375 -4.234375 C 1.601562 -4.109375 1.628906 -4.035156 1.671875 -4.015625 C 2.117188 -3.773438 2.570312 -3.65625 3.03125 -3.65625 C 3.832031 -3.65625 4.582031 -4.003906 5.28125 -4.703125 C 5.488281 -4.898438 5.601562 -5.144531 5.625 -5.4375 Z M 5.625 -5.4375 "/></g></g></g><g fill="#2f3335" fill-opacity="1"><g transform="translate(225.523241, 277.808713)"><g><path d="M 1.71875 -7.859375 C 1.726562 -7.660156 1.734375 -7.382812 1.734375 -7.03125 C 1.734375 -6.6875 1.738281 -6.296875 1.75 -5.859375 C 1.757812 -5.421875 1.769531 -4.96875 1.78125 -4.5 C 1.789062 -4.03125 1.796875 -3.578125 1.796875 -3.140625 C 1.804688 -2.703125 1.8125 -2.3125 1.8125 -1.96875 C 1.8125 -1.632812 1.8125 -1.378906 1.8125 -1.203125 C 1.8125 -1.066406 1.804688 -0.929688 1.796875 -0.796875 C 1.796875 -0.660156 1.765625 -0.535156 1.703125 -0.421875 C 1.648438 -0.328125 1.566406 -0.234375 1.453125 -0.140625 C 1.335938 -0.0546875 1.234375 -0.0078125 1.140625 0 C 1.035156 0.0078125 0.925781 -0.0234375 0.8125 -0.109375 C 0.707031 -0.203125 0.628906 -0.296875 0.578125 -0.390625 C 0.515625 -0.484375 0.476562 -0.59375 0.46875 -0.71875 C 0.457031 -0.84375 0.453125 -0.960938 0.453125 -1.078125 C 0.472656 -2.203125 0.5 -3.328125 0.53125 -4.453125 C 0.5625 -5.585938 0.585938 -6.722656 0.609375 -7.859375 C 0.640625 -8.441406 0.835938 -8.726562 1.203125 -8.71875 C 1.535156 -8.707031 1.707031 -8.421875 1.71875 -7.859375 Z M 1.71875 -7.859375 "/></g></g></g><g fill="#2f3335" fill-opacity="1"><g transform="translate(234.765569, 277.808713)"><g><path d="M 6.828125 -1.703125 C 6.847656 -1.710938 6.867188 -1.71875 6.890625 -1.71875 C 6.910156 -1.726562 6.929688 -1.734375 6.953125 -1.734375 C 6.972656 -2.265625 6.992188 -2.789062 7.015625 -3.3125 C 7.046875 -3.84375 7.0625 -4.375 7.0625 -4.90625 C 7.050781 -5.34375 7.023438 -5.773438 6.984375 -6.203125 C 6.953125 -6.640625 6.921875 -7.082031 6.890625 -7.53125 C 6.890625 -7.664062 6.894531 -7.800781 6.90625 -7.9375 C 6.925781 -8.082031 6.957031 -8.21875 7 -8.34375 C 7.03125 -8.46875 7.085938 -8.566406 7.171875 -8.640625 C 7.253906 -8.710938 7.367188 -8.738281 7.515625 -8.71875 C 7.648438 -8.6875 7.75 -8.628906 7.8125 -8.546875 C 7.875 -8.460938 7.898438 -8.351562 7.890625 -8.21875 C 7.890625 -7.46875 7.90625 -6.71875 7.9375 -5.96875 C 7.96875 -5.21875 7.988281 -4.472656 8 -3.734375 C 8.007812 -2.992188 7.96875 -2.25 7.875 -1.5 C 7.863281 -1.375 7.851562 -1.242188 7.84375 -1.109375 C 7.832031 -0.972656 7.804688 -0.847656 7.765625 -0.734375 C 7.691406 -0.484375 7.554688 -0.320312 7.359375 -0.25 C 7.160156 -0.175781 6.953125 -0.210938 6.734375 -0.359375 C 6.597656 -0.429688 6.472656 -0.539062 6.359375 -0.6875 C 5.703125 -1.445312 5.046875 -2.207031 4.390625 -2.96875 C 3.742188 -3.738281 3.097656 -4.507812 2.453125 -5.28125 C 2.304688 -5.457031 2.164062 -5.640625 2.03125 -5.828125 C 1.894531 -6.023438 1.742188 -6.234375 1.578125 -6.453125 C 1.578125 -6.359375 1.570312 -6.28125 1.5625 -6.21875 C 1.5625 -6.164062 1.5625 -6.113281 1.5625 -6.0625 C 1.550781 -5.175781 1.539062 -4.296875 1.53125 -3.421875 C 1.519531 -2.546875 1.507812 -1.671875 1.5 -0.796875 C 1.5 -0.734375 1.5 -0.671875 1.5 -0.609375 C 1.5 -0.554688 1.492188 -0.5 1.484375 -0.4375 C 1.453125 -0.320312 1.40625 -0.222656 1.34375 -0.140625 C 1.28125 -0.0546875 1.171875 -0.0078125 1.015625 0 C 0.890625 0.0078125 0.785156 -0.0195312 0.703125 -0.09375 C 0.617188 -0.164062 0.5625 -0.265625 0.53125 -0.390625 C 0.5 -0.492188 0.472656 -0.601562 0.453125 -0.71875 C 0.441406 -0.84375 0.441406 -0.957031 0.453125 -1.0625 C 0.492188 -2.082031 0.535156 -3.101562 0.578125 -4.125 C 0.628906 -5.144531 0.675781 -6.164062 0.71875 -7.1875 C 0.726562 -7.332031 0.757812 -7.484375 0.8125 -7.640625 C 0.851562 -7.742188 0.914062 -7.816406 1 -7.859375 C 1.082031 -7.910156 1.171875 -7.90625 1.265625 -7.84375 C 1.421875 -7.757812 1.578125 -7.664062 1.734375 -7.5625 C 1.898438 -7.46875 2.046875 -7.351562 2.171875 -7.21875 C 2.859375 -6.4375 3.535156 -5.648438 4.203125 -4.859375 C 4.878906 -4.066406 5.550781 -3.273438 6.21875 -2.484375 C 6.332031 -2.359375 6.4375 -2.226562 6.53125 -2.09375 C 6.625 -1.96875 6.722656 -1.835938 6.828125 -1.703125 Z M 6.828125 -1.703125 "/></g></g></g><g fill="#2f3335" fill-opacity="1"><g transform="translate(249.339127, 277.808713)"><g><path d="M 5.03125 -1.484375 C 5.957031 -1.816406 6.550781 -2.5 6.8125 -3.53125 C 6.539062 -3.5625 6.273438 -3.585938 6.015625 -3.609375 C 5.765625 -3.628906 5.515625 -3.660156 5.265625 -3.703125 C 4.992188 -3.742188 4.753906 -3.828125 4.546875 -3.953125 C 4.492188 -3.984375 4.445312 -4.039062 4.40625 -4.125 C 4.363281 -4.207031 4.347656 -4.28125 4.359375 -4.34375 C 4.359375 -4.40625 4.394531 -4.46875 4.46875 -4.53125 C 4.539062 -4.59375 4.601562 -4.625 4.65625 -4.625 C 5.082031 -4.625 5.507812 -4.625 5.9375 -4.625 C 6.375 -4.625 6.804688 -4.609375 7.234375 -4.578125 C 7.378906 -4.566406 7.515625 -4.5 7.640625 -4.375 C 7.765625 -4.257812 7.859375 -4.117188 7.921875 -3.953125 C 7.984375 -3.785156 8 -3.613281 7.96875 -3.4375 C 7.875 -2.875 7.695312 -2.375 7.4375 -1.9375 C 7.175781 -1.5 6.851562 -1.128906 6.46875 -0.828125 C 6.082031 -0.535156 5.660156 -0.316406 5.203125 -0.171875 C 4.753906 -0.0351562 4.285156 0.0195312 3.796875 0 C 3.316406 -0.03125 2.847656 -0.148438 2.390625 -0.359375 C 1.816406 -0.617188 1.375 -0.984375 1.0625 -1.453125 C 0.757812 -1.929688 0.570312 -2.476562 0.5 -3.09375 C 0.382812 -4.082031 0.472656 -5.039062 0.765625 -5.96875 C 0.960938 -6.613281 1.28125 -7.15625 1.71875 -7.59375 C 2.164062 -8.039062 2.695312 -8.359375 3.3125 -8.546875 C 3.9375 -8.734375 4.597656 -8.769531 5.296875 -8.65625 C 5.597656 -8.601562 5.898438 -8.53125 6.203125 -8.4375 C 6.503906 -8.34375 6.800781 -8.25 7.09375 -8.15625 C 7.207031 -8.125 7.304688 -8.0625 7.390625 -7.96875 C 7.484375 -7.882812 7.503906 -7.765625 7.453125 -7.609375 C 7.410156 -7.460938 7.332031 -7.382812 7.21875 -7.375 C 7.101562 -7.363281 6.992188 -7.363281 6.890625 -7.375 C 6.617188 -7.414062 6.347656 -7.460938 6.078125 -7.515625 C 5.804688 -7.566406 5.535156 -7.613281 5.265625 -7.65625 C 4.242188 -7.769531 3.421875 -7.578125 2.796875 -7.078125 C 2.179688 -6.578125 1.828125 -5.820312 1.734375 -4.8125 C 1.703125 -4.414062 1.6875 -4.03125 1.6875 -3.65625 C 1.707031 -3.125 1.820312 -2.6875 2.03125 -2.34375 C 2.25 -2.007812 2.523438 -1.753906 2.859375 -1.578125 C 3.203125 -1.398438 3.5625 -1.304688 3.9375 -1.296875 C 4.320312 -1.285156 4.6875 -1.347656 5.03125 -1.484375 Z M 5.03125 -1.484375 "/></g></g></g></svg>