<svg xmlns="http://www.w3.org/2000/svg" viewBox="0 0 500 500"><g id="freepik--background-complete--inject-3"><rect y="382.4" width="500" height="0.25" style="fill:#ebebeb"></rect><rect x="416.78" y="398.49" width="33.12" height="0.25" style="fill:#ebebeb"></rect><rect x="322.53" y="401.21" width="8.69" height="0.25" style="fill:#ebebeb"></rect><rect x="396.59" y="389.21" width="19.19" height="0.25" style="fill:#ebebeb"></rect><rect x="52.46" y="390.89" width="43.19" height="0.25" style="fill:#ebebeb"></rect><rect x="104.56" y="390.89" width="6.33" height="0.25" style="fill:#ebebeb"></rect><rect x="131.47" y="395.11" width="93.68" height="0.25" style="fill:#ebebeb"></rect><path d="M237,337.8H43.91a5.71,5.71,0,0,1-5.7-5.71V60.66A5.71,5.71,0,0,1,43.91,55H237a5.71,5.71,0,0,1,5.71,5.71V332.09A5.71,5.71,0,0,1,237,337.8ZM43.91,55.2a5.46,5.46,0,0,0-5.45,5.46V332.09a5.46,5.46,0,0,0,5.45,5.46H237a5.47,5.47,0,0,0,5.46-5.46V60.66A5.47,5.47,0,0,0,237,55.2Z" style="fill:#ebebeb"></path><path d="M453.31,337.8H260.21a5.72,5.72,0,0,1-5.71-5.71V60.66A5.72,5.72,0,0,1,260.21,55h193.1A5.71,5.71,0,0,1,459,60.66V332.09A5.71,5.71,0,0,1,453.31,337.8ZM260.21,55.2a5.47,5.47,0,0,0-5.46,5.46V332.09a5.47,5.47,0,0,0,5.46,5.46h193.1a5.47,5.47,0,0,0,5.46-5.46V60.66a5.47,5.47,0,0,0-5.46-5.46Z" style="fill:#ebebeb"></path><circle cx="319.41" cy="133.29" r="32.09" style="fill:#fafafa"></circle><path d="M191.86,108.89a4.83,4.83,0,0,1,4.83-4.83,4.52,4.52,0,0,1,1.38.21,10.46,10.46,0,0,1-.1-1.49A10.23,10.23,0,0,1,208.2,92.55a10.6,10.6,0,0,1,1.88.18,8.94,8.94,0,0,1,16.58,4.52h.15a8.24,8.24,0,1,1,0,16.48H196.55A4.84,4.84,0,0,1,191.86,108.89Z" style="fill:#f5f5f5"></path><path d="M260,133.75a2.42,2.42,0,0,1,2.42-2.42,2.26,2.26,0,0,1,.69.11,6.16,6.16,0,0,1-.05-.75,5.11,5.11,0,0,1,5.11-5.11,5,5,0,0,1,.95.09,4.46,4.46,0,0,1,8.28,2.26h.08a4.12,4.12,0,1,1,0,8.24H262.3A2.42,2.42,0,0,1,260,133.75Z" style="fill:#f5f5f5"></path><path d="M396.32,215a2.42,2.42,0,0,1,2.42-2.42,2.61,2.61,0,0,1,.69.1,5.87,5.87,0,0,1-.05-.74,5.11,5.11,0,0,1,5.11-5.11,4.94,4.94,0,0,1,.95.09,4.46,4.46,0,0,1,8.28,2.26h.08a4.12,4.12,0,0,1,0,8.24H398.67A2.42,2.42,0,0,1,396.32,215Z" style="fill:#f5f5f5"></path><path d="M70.13,215.94a2.41,2.41,0,0,1,2.42-2.41,2.61,2.61,0,0,1,.69.1,6,6,0,0,1,0-.74,5.11,5.11,0,0,1,5.11-5.11,5.77,5.77,0,0,1,.94.08,4.47,4.47,0,0,1,8.29,2.26h.08a4.12,4.12,0,1,1,0,8.24H72.48A2.42,2.42,0,0,1,70.13,215.94Z" style="fill:#f5f5f5"></path><path d="M334.09,115.28a3.16,3.16,0,0,1,3.16-3.17,3,3,0,0,1,.91.14,7.77,7.77,0,0,1-.07-1,6.7,6.7,0,0,1,6.71-6.71,6.26,6.26,0,0,1,1.23.12,5.86,5.86,0,0,1,10.87,3h.1a5.41,5.41,0,0,1,0,10.81H337.16A3.16,3.16,0,0,1,334.09,115.28Z" style="fill:#f5f5f5"></path><path d="M426.3,221a6.66,6.66,0,0,0,.23-1.51c.19-3.13,3.18-2.64,5.73-3.06,2-.33-3.28-5.36.73-7a3.55,3.55,0,0,0,1.93-1.34,2.26,2.26,0,0,0-.87-2.78,5.34,5.34,0,0,0-3-.77c-.66-.79-.13-2,.51-2.8s1.4-1.74,1.16-2.74c-.36-1.51-2.47-1.56-4-1.27a10.92,10.92,0,0,1-.82-3.09c-.28-1-1.1-2.13-2.17-2s-1.61,1.26-2.6,1.49-2.13-.74-3-1.5-2.46-1.23-3.08-.23c-.37.59-.15,1.43-.53,2-.67,1-2.25.38-3.23-.34s-2.54-1.38-3.23-.38a4.25,4.25,0,0,0-.38,1c-.47,1.34-1.91,2-3,2.87s-2,2.56-1.07,3.61c.47.52,1.3.73,1.54,1.39.29.82-.55,1.56-1.22,2.12-1.11.94-1.31,3.76.16,4.53.61.33,1.51.43,1.66,1.11s-.48,1.07-.88,1.54a2.9,2.9,0,0,0,.89,4.33c.35.17.78.31.91.68a1.46,1.46,0,0,1-.08.82,4.16,4.16,0,0,0-.14,1.57.67.67,0,0,0,.19.49.73.73,0,0,0,.46.13c2.12.09,3.14-.65,4.43,1.19a1.48,1.48,0,0,0,.44.46,1.28,1.28,0,0,0,.58.15c1.45.12,2.4-.79,3.73-1,1.85-.23,2.24.72,3.86,1.48C424.59,223.5,425.82,222.76,426.3,221Z" style="fill:#f5f5f5"></path><path d="M402,218.39a8,8,0,0,0,.23-1.51c.18-3.13,3.17-2.64,5.72-3.06,2-.34-3.28-5.36.73-7a3.53,3.53,0,0,0,1.94-1.35,2.29,2.29,0,0,0-.88-2.78,5.41,5.41,0,0,0-3-.76c-.66-.79-.12-2,.51-2.8s1.41-1.74,1.17-2.74c-.36-1.51-2.48-1.56-4-1.27a10.69,10.69,0,0,1-.83-3.09c-.27-1-1.1-2.13-2.16-2s-1.62,1.25-2.61,1.49c-1.14.27-2.13-.75-3-1.5s-2.46-1.24-3.08-.24c-.37.6-.15,1.44-.53,2-.67,1-2.25.39-3.23-.33s-2.54-1.38-3.23-.38a4.25,4.25,0,0,0-.38,1c-.46,1.34-1.91,2-3,2.86s-2,2.57-1.06,3.62c.47.52,1.3.72,1.53,1.38.29.83-.55,1.56-1.22,2.13-1.1.94-1.3,3.76.16,4.53.62.33,1.52.43,1.67,1.1s-.48,1.08-.89,1.55a2.91,2.91,0,0,0,.89,4.33c.35.17.78.31.91.68a1.38,1.38,0,0,1-.08.82,4.32,4.32,0,0,0-.14,1.56.74.74,0,0,0,.19.5.8.8,0,0,0,.46.13c2.12.09,3.14-.66,4.43,1.18a1.11,1.11,0,0,0,1,.62c1.46.12,2.41-.79,3.74-1,1.84-.23,2.23.72,3.85,1.48C400.23,220.87,401.47,220.13,402,218.39Z" style="fill:#f5f5f5"></path><path d="M399.6,202.88a7.27,7.27,0,0,0,.23-1.51c.18-3.14,3.18-2.64,5.72-3.06,2-.34-3.28-5.36.73-7a3.5,3.5,0,0,0,1.94-1.35,2.29,2.29,0,0,0-.88-2.78,5.39,5.39,0,0,0-3-.76c-.65-.8-.12-2,.51-2.8s1.41-1.74,1.17-2.74c-.36-1.51-2.47-1.57-4-1.27a11.44,11.44,0,0,1-.83-3.1c-.27-1-1.1-2.12-2.16-2s-1.62,1.25-2.6,1.48c-1.15.27-2.14-.74-3-1.5s-2.47-1.23-3.09-.23c-.36.6-.14,1.43-.53,2-.66,1-2.24.39-3.22-.33s-2.55-1.38-3.24-.38a4.7,4.7,0,0,0-.38,1.05c-.46,1.34-1.91,2-3,2.86s-2,2.57-1.07,3.62c.47.51,1.3.72,1.53,1.38.29.82-.55,1.56-1.21,2.13-1.11.94-1.31,3.76.15,4.53.62.32,1.52.42,1.67,1.1s-.48,1.08-.89,1.55a2.91,2.91,0,0,0,.89,4.33c.35.17.79.31.92.68a1.34,1.34,0,0,1-.09.81,4.39,4.39,0,0,0-.14,1.57.79.79,0,0,0,.19.5.83.83,0,0,0,.47.13c2.11.09,3.13-.66,4.42,1.18a1.65,1.65,0,0,0,.44.47,1.51,1.51,0,0,0,.59.15c1.45.12,2.4-.79,3.73-1,1.84-.24,2.23.71,3.86,1.48C397.88,205.36,399.12,204.62,399.6,202.88Z" style="fill:#f5f5f5"></path><path d="M383.56,210.6a7.3,7.3,0,0,0,.22-1.51c.19-3.13,3.18-2.63,5.73-3.06,2-.33-3.28-5.35.73-7a3.51,3.51,0,0,0,1.93-1.35,2.26,2.26,0,0,0-.87-2.78,5.41,5.41,0,0,0-3-.76c-.66-.8-.13-2,.51-2.81s1.41-1.73,1.17-2.73c-.37-1.52-2.48-1.57-4-1.28a10.92,10.92,0,0,1-.82-3.09c-.28-1-1.1-2.13-2.17-2s-1.61,1.26-2.6,1.49-2.13-.74-3-1.5-2.46-1.23-3.08-.23c-.37.6-.15,1.43-.53,2-.67,1-2.25.39-3.23-.34s-2.54-1.38-3.23-.37a4.11,4.11,0,0,0-.38,1c-.46,1.33-1.91,2-3,2.86s-2,2.57-1.06,3.61c.47.52,1.29.73,1.53,1.39.29.82-.55,1.56-1.22,2.12-1.1.95-1.31,3.77.16,4.54.61.32,1.52.42,1.67,1.1s-.48,1.08-.89,1.54a2.91,2.91,0,0,0,.89,4.34c.35.17.78.3.91.67a1.46,1.46,0,0,1-.08.82,4.16,4.16,0,0,0-.14,1.57.56.56,0,0,0,.65.62c2.12.1,3.14-.65,4.43,1.19a1.41,1.41,0,0,0,.44.47,1.27,1.27,0,0,0,.58.14c1.46.12,2.41-.79,3.73-1,1.85-.23,2.24.72,3.86,1.48C381.84,213.09,383.08,212.35,383.56,210.6Z" style="fill:#f5f5f5"></path><path d="M367.34,207a8.26,8.26,0,0,0,.23-1.51c.18-3.14,3.18-2.64,5.72-3.07,2-.33-3.28-5.35.73-7a3.5,3.5,0,0,0,1.94-1.35,2.28,2.28,0,0,0-.88-2.78,5.39,5.39,0,0,0-3-.76c-.65-.8-.12-2,.51-2.81s1.41-1.73,1.17-2.73c-.36-1.51-2.48-1.57-4-1.27a11.09,11.09,0,0,1-.83-3.1c-.27-1-1.1-2.13-2.16-2s-1.62,1.26-2.6,1.49c-1.15.27-2.14-.74-3-1.5s-2.47-1.23-3.09-.23c-.37.6-.14,1.43-.53,2-.66,1-2.24.39-3.22-.34s-2.55-1.38-3.24-.37a4.52,4.52,0,0,0-.38,1.05c-.46,1.34-1.91,2-3,2.86s-2,2.57-1.07,3.61c.47.52,1.3.73,1.53,1.39.29.82-.55,1.56-1.21,2.13-1.11.94-1.31,3.76.15,4.53.62.32,1.52.42,1.67,1.1s-.48,1.08-.89,1.55a2.91,2.91,0,0,0,.89,4.33c.35.17.79.31.92.67a1.37,1.37,0,0,1-.09.82,4.39,4.39,0,0,0-.14,1.57.56.56,0,0,0,.66.62c2.11.1,3.13-.65,4.42,1.19a1.65,1.65,0,0,0,.44.47,1.31,1.31,0,0,0,.59.14c1.45.12,2.4-.78,3.73-.95,1.84-.24,2.23.71,3.86,1.48C365.62,209.52,366.86,208.78,367.34,207Z" style="fill:#f5f5f5"></path><path d="M367.13,224.38a6.63,6.63,0,0,0,.18-1.19c.14-2.46,2.5-2.07,4.5-2.41,1.57-.26-2.58-4.22.58-5.49a2.8,2.8,0,0,0,1.52-1.06,1.79,1.79,0,0,0-.68-2.19,4.24,4.24,0,0,0-2.4-.6c-.52-.63-.1-1.57.4-2.21s1.11-1.37.92-2.15c-.28-1.19-1.95-1.24-3.15-1a8.8,8.8,0,0,1-.65-2.43c-.21-.82-.86-1.68-1.7-1.57s-1.28,1-2,1.17-1.68-.59-2.39-1.18-1.94-1-2.42-.19c-.3.47-.12,1.13-.42,1.59-.53.81-1.77.31-2.54-.26s-2-1.09-2.55-.3a3.43,3.43,0,0,0-.3.83c-.36,1.05-1.5,1.58-2.39,2.25s-1.59,2-.84,2.85c.37.41,1,.57,1.21,1.09s-.44,1.23-1,1.67c-.87.75-1,3,.12,3.57.49.26,1.2.34,1.32.87s-.38.85-.7,1.22a2.29,2.29,0,0,0,.7,3.41c.27.13.61.24.72.53a1.13,1.13,0,0,1-.07.65,3.41,3.41,0,0,0-.11,1.23.54.54,0,0,0,.15.39.59.59,0,0,0,.37.1c1.66.08,2.46-.51,3.48.94a1.2,1.2,0,0,0,.35.36,1,1,0,0,0,.46.12c1.14.09,1.89-.62,2.94-.76,1.45-.18,1.75.57,3,1.17C365.78,226.34,366.75,225.75,367.13,224.38Z" style="fill:#f5f5f5"></path><path d="M358,218.39a7.27,7.27,0,0,0,.23-1.51c.19-3.13,3.18-2.64,5.72-3.06,2-.34-3.27-5.36.74-7a3.51,3.51,0,0,0,1.93-1.35,2.29,2.29,0,0,0-.87-2.78,5.42,5.42,0,0,0-3.05-.76c-.65-.79-.12-2,.51-2.8s1.41-1.74,1.17-2.74c-.36-1.51-2.47-1.56-4-1.27a11.37,11.37,0,0,1-.83-3.09c-.27-1-1.09-2.13-2.16-2s-1.62,1.25-2.6,1.49c-1.14.27-2.13-.75-3-1.5s-2.47-1.24-3.08-.24c-.37.6-.15,1.44-.54,2-.66,1-2.24.39-3.22-.33s-2.54-1.38-3.23-.38a3.88,3.88,0,0,0-.38,1c-.47,1.34-1.92,2-3,2.86s-2,2.57-1.07,3.62c.47.52,1.3.72,1.53,1.38.3.83-.55,1.56-1.21,2.13-1.11.94-1.31,3.76.16,4.53.61.33,1.51.43,1.66,1.1s-.48,1.08-.89,1.55a2.91,2.91,0,0,0,.89,4.33c.36.17.79.31.92.68a1.38,1.38,0,0,1-.09.82,4.32,4.32,0,0,0-.14,1.56.79.79,0,0,0,.19.5.83.83,0,0,0,.47.13c2.11.09,3.13-.66,4.42,1.18a1.65,1.65,0,0,0,.44.47,1.51,1.51,0,0,0,.59.15c1.45.12,2.4-.79,3.73-1,1.84-.23,2.24.72,3.86,1.48C356.32,220.87,357.56,220.13,358,218.39Z" style="fill:#f5f5f5"></path><path d="M383.56,191.52a7.3,7.3,0,0,0,.22-1.51c.19-3.13,3.18-2.63,5.73-3.06,2-.33-3.28-5.35.73-7a3.51,3.51,0,0,0,1.93-1.35,2.26,2.26,0,0,0-.87-2.78,5.41,5.41,0,0,0-3-.76c-.66-.8-.13-2,.51-2.81s1.41-1.73,1.17-2.73c-.37-1.52-2.48-1.57-4-1.28a10.92,10.92,0,0,1-.82-3.09c-.28-1-1.1-2.13-2.17-2s-1.61,1.26-2.6,1.49-2.13-.74-3-1.5-2.46-1.23-3.08-.23c-.37.6-.15,1.43-.53,2-.67,1-2.25.39-3.23-.34s-2.54-1.38-3.23-.37a4.11,4.11,0,0,0-.38,1.05c-.46,1.33-1.91,2-3,2.86s-2,2.57-1.06,3.61c.47.52,1.29.73,1.53,1.39.29.82-.55,1.56-1.22,2.12-1.1.95-1.31,3.77.16,4.54.61.32,1.52.42,1.67,1.1s-.48,1.08-.89,1.54a2.91,2.91,0,0,0,.89,4.34c.35.17.78.3.91.67a1.46,1.46,0,0,1-.08.82,4.16,4.16,0,0,0-.14,1.57.56.56,0,0,0,.65.62c2.12.1,3.14-.65,4.43,1.19a1.41,1.41,0,0,0,.44.47,1.27,1.27,0,0,0,.58.14c1.46.12,2.41-.79,3.73-1,1.85-.23,2.24.72,3.86,1.48C381.84,194,383.08,193.27,383.56,191.52Z" style="fill:#f5f5f5"></path><path d="M404.39,192.59a8,8,0,0,0,.23-1.51c.18-3.13,3.17-2.64,5.72-3.06,2-.34-3.28-5.36.73-7a3.53,3.53,0,0,0,1.94-1.35,2.29,2.29,0,0,0-.88-2.78,5.41,5.41,0,0,0-3-.76c-.66-.79-.12-2,.51-2.8s1.41-1.74,1.17-2.74c-.37-1.51-2.48-1.56-4-1.27a10.69,10.69,0,0,1-.83-3.09c-.27-1-1.1-2.13-2.16-2s-1.62,1.25-2.61,1.49c-1.14.27-2.13-.75-3-1.5s-2.46-1.24-3.08-.24c-.37.6-.15,1.44-.53,2-.67,1-2.25.39-3.23-.33s-2.54-1.38-3.23-.38a4.25,4.25,0,0,0-.38,1.05c-.46,1.34-1.91,2-3,2.87s-2,2.56-1.06,3.61c.47.52,1.3.72,1.53,1.38.29.83-.55,1.56-1.22,2.13-1.1.94-1.3,3.76.16,4.53.62.33,1.52.43,1.67,1.1s-.48,1.08-.89,1.55a2.91,2.91,0,0,0,.89,4.33c.35.17.78.31.91.68a1.38,1.38,0,0,1-.08.82,4.32,4.32,0,0,0-.14,1.56.74.74,0,0,0,.19.5.8.8,0,0,0,.46.13c2.12.09,3.14-.66,4.43,1.18a1.11,1.11,0,0,0,1,.62c1.46.12,2.41-.79,3.74-1,1.84-.23,2.23.72,3.85,1.48C402.67,195.07,403.91,194.33,404.39,192.59Z" style="fill:#f5f5f5"></path><path d="M417,201.12a7.47,7.47,0,0,0,.23-1.52c.18-3.13,3.18-2.63,5.72-3.06,2-.33-3.27-5.35.73-7a3.5,3.5,0,0,0,1.94-1.35,2.29,2.29,0,0,0-.87-2.78,5.44,5.44,0,0,0-3.05-.76c-.65-.8-.12-2,.51-2.81s1.41-1.73,1.17-2.73c-.36-1.52-2.47-1.57-4-1.28a11.27,11.27,0,0,1-.83-3.09c-.27-1-1.1-2.13-2.16-2s-1.62,1.26-2.6,1.49c-1.15.27-2.14-.74-3-1.5s-2.47-1.23-3.08-.23c-.37.6-.15,1.43-.54,2-.66,1-2.24.39-3.22-.34s-2.55-1.38-3.24-.37a4.52,4.52,0,0,0-.38,1c-.46,1.33-1.91,2-3,2.86s-2,2.57-1.07,3.61c.47.52,1.3.73,1.53,1.39.29.82-.55,1.56-1.21,2.12-1.11.95-1.31,3.77.15,4.54.62.32,1.52.42,1.67,1.1s-.48,1.08-.89,1.54a2.92,2.92,0,0,0,.89,4.34c.35.17.79.3.92.67a1.37,1.37,0,0,1-.09.82,4.37,4.37,0,0,0-.14,1.57.76.76,0,0,0,.19.49.7.7,0,0,0,.47.13c2.11.1,3.13-.65,4.42,1.19a1.65,1.65,0,0,0,.44.47,1.35,1.35,0,0,0,.59.14c1.45.12,2.4-.79,3.73-1,1.84-.24,2.23.71,3.86,1.47C415.32,203.6,416.56,202.86,417,201.12Z" style="fill:#f5f5f5"></path><path d="M413.2,211.89s-5.29,7.48-7.11,9.85-10.95,17.16-12.19,26.93c-.14,1.05-.27,1.94-.39,2.73,3.92,25.9,3.31,130.53,3.17,138.64H379.12c1.92-80.14,3.95-150,3.56-152.57s-5.61-13-13.63-17.22-15-18.21-15-18.21h2.56s4.74,8.57,11.49,13.32a26.09,26.09,0,0,0,3,1.8A43.07,43.07,0,0,1,373.86,202l1.38,1.27c-1.87,7.64-1.62,12.53-1.06,15.34a27.59,27.59,0,0,1,7,4.68c7-9.11,10.94-29.94,10.94-29.94l1.8,1a107.46,107.46,0,0,1-2.32,12.78c-1.31,5.39-5.17,15.54-7,20.14a47.6,47.6,0,0,1,5.29,9.93,4.43,4.43,0,0,1,.68-.81c4.56-4.12,13.14-23.61,13.14-23.61,2.07-4.53-1.1-16.42-1.1-16.42H405l1.08,10.4,6-6.57,1.09.91-6.38,8.22-3.29,10.4,8.58-9.49Z" style="fill:#f5f5f5"></path><rect x="70.13" y="307.1" width="358.42" height="12.15" style="fill:#e0e0e0"></rect><polygon points="78.57 382.55 61.69 382.55 61.69 275.99 70.13 269.99 78.57 275.99 78.57 382.55" style="fill:#e6e6e6"></polygon><polygon points="108.44 382.55 91.56 382.55 91.56 275.99 100 269.99 108.44 275.99 108.44 382.55" style="fill:#e6e6e6"></polygon><polygon points="138.31 382.55 121.43 382.55 121.43 275.99 129.87 269.99 138.31 275.99 138.31 382.55" style="fill:#e6e6e6"></polygon><polygon points="168.18 382.55 151.3 382.55 151.3 275.99 159.74 269.99 168.18 275.99 168.18 382.55" style="fill:#e6e6e6"></polygon><polygon points="198.04 382.55 181.17 382.55 181.17 275.99 189.6 269.99 198.04 275.99 198.04 382.55" style="fill:#e6e6e6"></polygon><polygon points="227.91 382.55 211.03 382.55 211.03 275.99 219.47 269.99 227.91 275.99 227.91 382.55" style="fill:#e6e6e6"></polygon><polygon points="257.78 382.55 240.9 382.55 240.9 275.99 249.34 269.99 257.78 275.99 257.78 382.55" style="fill:#e6e6e6"></polygon><polygon points="287.65 382.55 270.77 382.55 270.77 275.99 279.21 269.99 287.65 275.99 287.65 382.55" style="fill:#e6e6e6"></polygon><polygon points="317.52 382.55 300.64 382.55 300.64 275.99 309.08 269.99 317.52 275.99 317.52 382.55" style="fill:#e6e6e6"></polygon><polygon points="347.39 382.55 330.51 382.55 330.51 275.99 338.95 269.99 347.39 275.99 347.39 382.55" style="fill:#e6e6e6"></polygon><polygon points="377.25 382.55 360.38 382.55 360.38 275.99 368.81 269.99 377.25 275.99 377.25 382.55" style="fill:#e6e6e6"></polygon><polygon points="407.12 382.55 390.24 382.55 390.24 275.99 398.68 269.99 407.12 275.99 407.12 382.55" style="fill:#e6e6e6"></polygon><polygon points="436.99 382.55 420.11 382.55 420.11 275.99 428.55 269.99 436.99 275.99 436.99 382.55" style="fill:#e6e6e6"></polygon><path d="M77.41,183.84a8.9,8.9,0,0,1-.28-1.84c-.22-3.83-3.87-3.22-7-3.74-2.42-.4,4-6.53-.89-8.51a4.3,4.3,0,0,1-2.36-1.64A2.77,2.77,0,0,1,68,164.72a6.62,6.62,0,0,1,3.72-.94c.79-1,.15-2.42-.63-3.42s-1.71-2.11-1.42-3.33c.44-1.85,3-1.91,4.88-1.56.69-1.11.67-2.5,1-3.77s1.34-2.59,2.64-2.44,2,1.54,3.17,1.82c1.4.33,2.6-.91,3.7-1.83s3-1.5,3.76-.28c.45.72.18,1.74.65,2.46.81,1.25,2.74.47,3.93-.41s3.11-1.68,3.95-.46a5.14,5.14,0,0,1,.46,1.28c.57,1.63,2.33,2.45,3.71,3.5s2.46,3.13,1.3,4.4c-.58.63-1.59.89-1.87,1.69-.36,1,.67,1.91,1.48,2.6,1.35,1.15,1.6,4.59-.19,5.53-.75.39-1.85.51-2,1.34s.58,1.32,1.08,1.89a3.54,3.54,0,0,1-1.09,5.28c-.42.21-1,.38-1.11.83a1.7,1.7,0,0,0,.1,1,5.19,5.19,0,0,1,.17,1.92.85.85,0,0,1-.23.6.93.93,0,0,1-.57.16c-2.58.11-3.82-.8-5.4,1.45a1.92,1.92,0,0,1-.53.57,1.76,1.76,0,0,1-.71.17c-1.78.15-2.94-1-4.56-1.16-2.25-.29-2.72.87-4.7,1.8C79.51,186.87,78,186,77.41,183.84Z" style="fill:#f5f5f5"></path><path d="M107.13,180.63a8.9,8.9,0,0,1-.28-1.84c-.23-3.83-3.88-3.22-7-3.74-2.43-.4,4-6.53-.9-8.51a4.37,4.37,0,0,1-2.36-1.64,2.78,2.78,0,0,1,1.07-3.39,6.61,6.61,0,0,1,3.71-.94c.8-1,.15-2.43-.62-3.42s-1.72-2.11-1.43-3.33c.45-1.85,3-1.91,4.88-1.56.69-1.11.68-2.5,1-3.77s1.34-2.59,2.64-2.44,2,1.54,3.18,1.82c1.39.33,2.6-.91,3.69-1.83s3-1.5,3.76-.29c.45.73.18,1.75.65,2.47.82,1.24,2.74.47,3.94-.41s3.1-1.68,3.94-.46a5.17,5.17,0,0,1,.47,1.28c.56,1.63,2.33,2.45,3.7,3.49s2.47,3.13,1.3,4.41c-.57.63-1.58.89-1.87,1.69-.35,1,.67,1.91,1.49,2.6,1.35,1.15,1.59,4.59-.19,5.53-.75.39-1.85.51-2,1.34s.59,1.32,1.09,1.89a3.54,3.54,0,0,1-1.09,5.28c-.43.21-1,.38-1.12.83a1.62,1.62,0,0,0,.11,1,5.41,5.41,0,0,1,.17,1.92.89.89,0,0,1-.23.6,1,1,0,0,1-.57.16c-2.58.11-3.83-.8-5.4,1.45a2,2,0,0,1-.54.57,1.69,1.69,0,0,1-.71.17c-1.77.15-2.93-1-4.55-1.16-2.25-.29-2.73.87-4.71,1.8C109.22,183.66,107.71,182.75,107.13,180.63Z" style="fill:#f5f5f5"></path><path d="M110,161.71a8.89,8.89,0,0,1-.28-1.85c-.22-3.82-3.87-3.21-7-3.73-2.42-.41,4-6.54-.89-8.51A4.26,4.26,0,0,1,99.48,146a2.77,2.77,0,0,1,1.06-3.39,6.54,6.54,0,0,1,3.72-.93c.79-1,.14-2.43-.63-3.42s-1.72-2.12-1.42-3.34c.44-1.84,3-1.91,4.88-1.55.69-1.11.67-2.51,1-3.77s1.34-2.6,2.64-2.44,2,1.53,3.17,1.81c1.4.33,2.6-.9,3.7-1.83s3-1.5,3.76-.28c.45.73.18,1.75.65,2.47.81,1.24,2.74.47,3.93-.41s3.1-1.69,4-.46a5.41,5.41,0,0,1,.46,1.28c.57,1.63,2.33,2.44,3.71,3.49s2.46,3.13,1.3,4.41c-.58.63-1.59.89-1.87,1.69-.36,1,.67,1.9,1.48,2.59,1.35,1.15,1.6,4.59-.19,5.53-.75.4-1.85.52-2,1.35s.59,1.31,1.09,1.88a3.55,3.55,0,0,1-1.09,5.29c-.43.2-.95.37-1.11.82a1.66,1.66,0,0,0,.1,1,5.35,5.35,0,0,1,.17,1.91.89.89,0,0,1-.23.61.86.86,0,0,1-.57.15c-2.58.12-3.82-.79-5.4,1.45a1.81,1.81,0,0,1-.53.57,1.63,1.63,0,0,1-.72.18c-1.77.15-2.93-1-4.55-1.17-2.25-.28-2.73.88-4.71,1.81C112.09,164.73,110.58,163.83,110,161.71Z" style="fill:#f5f5f5"></path><path d="M129.57,171.13a8.9,8.9,0,0,1-.28-1.84c-.23-3.82-3.88-3.22-7-3.74-2.43-.4,4-6.53-.9-8.51a4.28,4.28,0,0,1-2.36-1.64,2.78,2.78,0,0,1,1.07-3.39,6.49,6.49,0,0,1,3.71-.93c.8-1,.15-2.43-.62-3.42s-1.72-2.12-1.43-3.34c.44-1.85,3-1.91,4.88-1.55.69-1.12.68-2.51,1-3.78s1.34-2.59,2.64-2.43,2,1.53,3.18,1.81c1.39.33,2.6-.9,3.69-1.83s3-1.5,3.76-.28c.45.73.18,1.74.65,2.46.81,1.25,2.74.47,3.94-.41s3.1-1.68,3.94-.46a4.77,4.77,0,0,1,.46,1.28c.57,1.64,2.34,2.45,3.71,3.5s2.46,3.13,1.3,4.4c-.57.64-1.58.89-1.87,1.69-.35,1,.67,1.91,1.48,2.6,1.35,1.15,1.6,4.59-.19,5.53-.75.39-1.85.51-2,1.34s.59,1.32,1.08,1.89a3.55,3.55,0,0,1-1.08,5.28c-.43.21-1,.38-1.12.83a1.74,1.74,0,0,0,.1,1,5.14,5.14,0,0,1,.18,1.91.86.86,0,0,1-.24.6.9.9,0,0,1-.56.16c-2.58.12-3.83-.8-5.4,1.45a1.84,1.84,0,0,1-.54.57,1.91,1.91,0,0,1-.71.18c-1.78.14-2.93-1-4.56-1.17-2.24-.29-2.72.87-4.7,1.8C131.66,174.16,130.15,173.25,129.57,171.13Z" style="fill:#f5f5f5"></path><path d="M149.35,166.78a8.9,8.9,0,0,1-.28-1.84c-.23-3.83-3.88-3.22-7-3.74-2.43-.41,4-6.53-.9-8.51a4.33,4.33,0,0,1-2.36-1.65,2.78,2.78,0,0,1,1.07-3.39,6.69,6.69,0,0,1,3.71-.93c.8-1,.15-2.43-.62-3.42s-1.72-2.11-1.43-3.34c.45-1.84,3-1.91,4.89-1.55.68-1.11.67-2.51,1-3.77s1.34-2.6,2.64-2.44,2,1.53,3.18,1.82c1.39.33,2.6-.91,3.69-1.83s3-1.51,3.76-.29c.46.73.19,1.75.65,2.47.82,1.24,2.74.47,3.94-.41s3.1-1.69,3.94-.46a5.17,5.17,0,0,1,.47,1.28c.56,1.63,2.33,2.45,3.7,3.49s2.47,3.13,1.3,4.41c-.57.63-1.58.89-1.86,1.69-.36,1,.66,1.9,1.48,2.6,1.35,1.14,1.59,4.58-.19,5.52-.75.4-1.85.52-2,1.35s.59,1.31,1.09,1.88a3.55,3.55,0,0,1-1.09,5.29c-.43.21-1,.38-1.11.82a1.66,1.66,0,0,0,.1,1,5.39,5.39,0,0,1,.17,1.92.91.91,0,0,1-.23.6.93.93,0,0,1-.57.16c-2.58.11-3.82-.8-5.4,1.44a1.74,1.74,0,0,1-.54.57,1.56,1.56,0,0,1-.71.18c-1.77.15-2.93-1-4.55-1.17-2.25-.28-2.73.88-4.71,1.81C151.44,169.8,149.93,168.9,149.35,166.78Z" style="fill:#f5f5f5"></path><path d="M149.61,187.94a6.8,6.8,0,0,1-.22-1.45c-.18-3-3.06-2.53-5.5-2.94-1.91-.32,3.15-5.15-.7-6.7a3.36,3.36,0,0,1-1.86-1.3,2.17,2.17,0,0,1,.84-2.67,5.15,5.15,0,0,1,2.92-.73c.63-.77.12-1.91-.49-2.69s-1.35-1.67-1.12-2.63c.35-1.46,2.37-1.51,3.84-1.23a10.41,10.41,0,0,0,.79-3c.27-1,1.06-2,2.08-1.92s1.56,1.21,2.5,1.43c1.1.26,2.05-.71,2.91-1.44s2.37-1.18,3-.22c.36.57.15,1.37.52,1.94.64,1,2.15.37,3.09-.32s2.45-1.33,3.11-.36a3.72,3.72,0,0,1,.36,1c.45,1.29,1.84,1.93,2.92,2.75s1.94,2.47,1,3.48c-.45.49-1.25.69-1.47,1.33s.52,1.5,1.16,2c1.07.9,1.26,3.61-.15,4.35-.59.31-1.45.41-1.6,1.06s.46,1,.86,1.49a2.8,2.8,0,0,1-.86,4.16c-.34.16-.75.29-.88.65a1.32,1.32,0,0,0,.08.78,4.07,4.07,0,0,1,.14,1.51.67.67,0,0,1-.19.47.67.67,0,0,1-.44.13c-2,.09-3-.63-4.25,1.14a1.54,1.54,0,0,1-.43.45,1.29,1.29,0,0,1-.56.14c-1.39.11-2.31-.76-3.58-.92-1.77-.23-2.15.69-3.71,1.42C151.26,190.32,150.07,189.61,149.61,187.94Z" style="fill:#f5f5f5"></path><path d="M160.69,180.63a8.9,8.9,0,0,1-.28-1.84c-.22-3.83-3.87-3.22-7-3.74-2.42-.4,4-6.53-.89-8.51a4.3,4.3,0,0,1-2.36-1.64,2.76,2.76,0,0,1,1.06-3.39,6.62,6.62,0,0,1,3.72-.94c.79-1,.14-2.43-.63-3.42s-1.71-2.11-1.42-3.33c.44-1.85,3-1.91,4.88-1.56.69-1.11.67-2.5,1-3.77s1.34-2.59,2.64-2.44,2,1.54,3.17,1.82c1.4.33,2.6-.91,3.7-1.83s3-1.5,3.76-.29c.45.73.18,1.75.65,2.47.81,1.24,2.74.47,3.93-.41s3.11-1.68,3.95-.46a5.58,5.58,0,0,1,.46,1.28c.57,1.63,2.33,2.45,3.71,3.49s2.46,3.13,1.3,4.41c-.58.63-1.59.89-1.87,1.69-.36,1,.67,1.91,1.48,2.6,1.35,1.15,1.6,4.59-.19,5.53-.75.39-1.85.51-2,1.34s.58,1.32,1.08,1.89a3.54,3.54,0,0,1-1.09,5.28c-.43.21-.95.38-1.11.83a1.62,1.62,0,0,0,.1,1,5.19,5.19,0,0,1,.17,1.92.85.85,0,0,1-.23.6.93.93,0,0,1-.57.16c-2.58.11-3.82-.8-5.4,1.45a2.06,2.06,0,0,1-.53.57,1.77,1.77,0,0,1-.72.17c-1.77.15-2.93-1-4.55-1.16-2.25-.29-2.72.87-4.71,1.8C162.79,183.66,161.28,182.75,160.69,180.63Z" style="fill:#f5f5f5"></path><path d="M129.57,147.85a8.9,8.9,0,0,1-.28-1.84c-.23-3.82-3.88-3.22-7-3.73-2.43-.41,4-6.54-.9-8.51a4.35,4.35,0,0,1-2.36-1.65,2.78,2.78,0,0,1,1.07-3.39,6.49,6.49,0,0,1,3.71-.93c.8-1,.15-2.43-.62-3.42s-1.72-2.12-1.43-3.34c.44-1.84,3-1.91,4.88-1.55.69-1.12.68-2.51,1-3.77s1.34-2.6,2.64-2.44,2,1.53,3.18,1.81c1.39.33,2.6-.9,3.69-1.83s3-1.5,3.76-.28c.45.73.18,1.75.65,2.46.81,1.25,2.74.48,3.94-.41s3.1-1.68,3.94-.45a4.65,4.65,0,0,1,.46,1.28c.57,1.63,2.34,2.44,3.71,3.49s2.46,3.13,1.3,4.41c-.57.63-1.58.88-1.87,1.69-.35,1,.67,1.9,1.48,2.59,1.35,1.15,1.6,4.59-.19,5.53-.75.4-1.85.52-2,1.34s.59,1.32,1.08,1.89a3.56,3.56,0,0,1-1.08,5.29c-.43.2-1,.37-1.12.82a1.74,1.74,0,0,0,.1,1,5.14,5.14,0,0,1,.18,1.91.86.86,0,0,1-.24.6.9.9,0,0,1-.56.16c-2.58.12-3.83-.8-5.4,1.45a1.36,1.36,0,0,1-1.25.75c-1.78.14-2.93-1-4.56-1.17-2.24-.29-2.72.87-4.7,1.81C131.66,150.88,130.15,150,129.57,147.85Z" style="fill:#f5f5f5"></path><path d="M104.15,149.15a8.9,8.9,0,0,1-.28-1.84c-.22-3.82-3.87-3.22-7-3.73-2.42-.41,4-6.54-.89-8.51a4.31,4.31,0,0,1-2.36-1.65A2.77,2.77,0,0,1,94.7,130a6.54,6.54,0,0,1,3.72-.93c.79-1,.14-2.43-.63-3.42s-1.72-2.12-1.42-3.34c.44-1.84,3-1.91,4.88-1.55.69-1.12.67-2.51,1-3.78s1.34-2.59,2.64-2.43,2,1.53,3.17,1.81c1.4.33,2.6-.9,3.7-1.83s3-1.5,3.76-.28c.45.73.18,1.75.65,2.46.81,1.25,2.74.48,3.93-.41s3.1-1.68,4-.45a5.26,5.26,0,0,1,.46,1.28c.57,1.63,2.33,2.44,3.71,3.49s2.46,3.13,1.3,4.41c-.58.63-1.59.88-1.87,1.69-.36,1,.67,1.9,1.48,2.59,1.35,1.15,1.6,4.59-.19,5.53-.75.4-1.85.52-2,1.34s.59,1.32,1.09,1.89a3.55,3.55,0,0,1-1.09,5.29c-.43.2-1,.37-1.11.82a1.66,1.66,0,0,0,.1,1,5.35,5.35,0,0,1,.17,1.91.85.85,0,0,1-.23.6.93.93,0,0,1-.57.16c-2.58.12-3.82-.8-5.4,1.45a1.81,1.81,0,0,1-.53.57,1.78,1.78,0,0,1-.72.18c-1.77.14-2.93-1-4.55-1.17-2.25-.29-2.73.87-4.71,1.8C106.25,152.18,104.74,151.28,104.15,149.15Z" style="fill:#f5f5f5"></path><path d="M88.71,159.55a8.93,8.93,0,0,1-.27-1.84c-.23-3.82-3.88-3.22-7-3.73-2.42-.41,4-6.54-.89-8.51a4.31,4.31,0,0,1-2.36-1.65,2.78,2.78,0,0,1,1.07-3.39A6.49,6.49,0,0,1,83,139.5c.8-1,.15-2.43-.62-3.42s-1.72-2.12-1.43-3.34c.44-1.84,3-1.91,4.88-1.55.69-1.12.68-2.51,1-3.77s1.34-2.6,2.64-2.44,2,1.53,3.17,1.81c1.4.33,2.61-.9,3.7-1.83s3-1.5,3.76-.28c.45.73.18,1.75.65,2.46.81,1.25,2.74.48,3.94-.41s3.1-1.68,3.94-.45a5,5,0,0,1,.46,1.28c.57,1.63,2.33,2.44,3.71,3.49s2.46,3.13,1.3,4.41c-.57.63-1.58.88-1.87,1.69-.36,1,.67,1.9,1.48,2.59,1.35,1.15,1.6,4.59-.19,5.53-.75.4-1.85.52-2,1.34s.58,1.32,1.08,1.89a3.56,3.56,0,0,1-1.08,5.29c-.43.2-1,.37-1.12.82a1.74,1.74,0,0,0,.1,1,5.14,5.14,0,0,1,.18,1.91.7.7,0,0,1-.8.76c-2.58.12-3.83-.8-5.4,1.45a1.74,1.74,0,0,1-.54.57,1.59,1.59,0,0,1-.71.18c-1.78.14-2.94-1-4.56-1.17-2.25-.29-2.72.87-4.7,1.81C90.81,162.58,89.3,161.68,88.71,159.55Z" style="fill:#f5f5f5"></path><path d="M93.39,172.7s6.46,9.13,8.69,12,13.35,20.93,14.87,32.85c.16,1.28.32,2.37.47,3.33-4.78,31.6-4,159.24-3.86,169.14H135c-2.35-97.78-4.83-183-4.35-186.13.5-3.3,6.84-15.85,16.64-21s18.26-22.22,18.26-22.22h-3.12s-5.79,10.46-14,16.25a31.74,31.74,0,0,1-3.71,2.2,52.54,52.54,0,0,0-3.27-18.45l-1.69,1.56c2.28,9.32,2,15.28,1.29,18.71a34.24,34.24,0,0,0-8.52,5.7c-8.54-11.11-13.34-36.52-13.34-36.52l-2.19,1.2a129.61,129.61,0,0,0,2.82,15.58c1.6,6.58,6.31,19,8.51,24.58a58.19,58.19,0,0,0-6.46,12.12,5,5,0,0,0-.82-1c-5.57-5-16-28.81-16-28.81-2.53-5.52,1.34-20,1.34-20h-2.92l-1.31,12.69-7.35-8-1.34,1.12,7.8,10,4,12.7L94.73,170.7Z" style="fill:#f5f5f5"></path></g><g id="freepik--Shadow--inject-3"><ellipse id="freepik--path--inject-3" cx="250" cy="416.24" rx="193.89" ry="11.32" style="fill:#f5f5f5"></ellipse></g><g id="freepik--Plant--inject-3"><path d="M384.83,375.15c0-.15-4.09-15.07-.51-23.34l-.46-.2c-3.65,8.44.45,23.52.49,23.67Z" style="fill:#607560"></path><path d="M389.26,375.22c0-.12,4.19-12.48,11.72-16.54l-.24-.44c-7.7,4.16-11.91,16.7-11.95,16.83Z" style="fill:#607560"></path><g style="opacity:0.4"><path d="M384.83,375.15c0-.15-4.09-15.07-.51-23.34l-.46-.2c-3.65,8.44.45,23.52.49,23.67Z" style="fill:#fff"></path></g><g style="opacity:0.4"><path d="M389.26,375.22c0-.12,4.19-12.48,11.72-16.54l-.24-.44c-7.7,4.16-11.91,16.7-11.95,16.83Z" style="fill:#fff"></path></g><path d="M385.48,348.54s1-4-2.2-2.84S383,349,383,349s-4.25.22-3.55,2.28,3.07.24,3.07.24-.77,3.2,2.09,2.59,1.59-2.45,1.59-2.45,1.14,1.78,2.45-.55-1.63-1.4-1.63-1.4,2.12-.82,1.49-2.38S385.48,348.54,385.48,348.54Z" style="fill:#607560"></path><path d="M398.75,359.42s-2.38,3.42,1.08,3.43,1.4-3,1.4-3,4.07,1.28,4.13-.9-2.8-1.29-2.8-1.29,1.84-2.74-1.06-3.16-2.34,1.74-2.34,1.74-.45-2.07-2.49-.33,1.05,1.87,1.05,1.87-2.28,0-2.23,1.72S398.75,359.42,398.75,359.42Z" style="fill:#607560"></path><path d="M385.48,348.54s1-4-2.2-2.84S383,349,383,349s-4.25.22-3.55,2.28,3.07.24,3.07.24-.77,3.2,2.09,2.59,1.59-2.45,1.59-2.45,1.14,1.78,2.45-.55-1.63-1.4-1.63-1.4,2.12-.82,1.49-2.38S385.48,348.54,385.48,348.54Z" style="fill:#fff;opacity:0.7000000000000001"></path><path d="M398.75,359.42s-2.38,3.42,1.08,3.43,1.4-3,1.4-3,4.07,1.28,4.13-.9-2.8-1.29-2.8-1.29,1.84-2.74-1.06-3.16-2.34,1.74-2.34,1.74-.45-2.07-2.49-.33,1.05,1.87,1.05,1.87-2.28,0-2.23,1.72S398.75,359.42,398.75,359.42Z" style="fill:#fff;opacity:0.7000000000000001"></path><path d="M432.68,384.49s4.35-7.53,2.77-12.86-8.31,4.65-8.31,4.65,1.72-12.49-4.22-14.86-7.38,13.32-7.38,13.32-6.07-13.23-14.24-10.11-2.11,16.6-2.11,16.6-6.6-1.72-8.18,1.23,7.91,5.37,7.91,5.37-7.51,1.06-7.51,3.15H439.8S441.25,385.68,432.68,384.49Z" style="fill:#607560"></path><path d="M432.68,384.49s4.35-7.53,2.77-12.86-8.31,4.65-8.31,4.65,1.72-12.49-4.22-14.86-7.38,13.32-7.38,13.32-6.07-13.23-14.24-10.11-2.11,16.6-2.11,16.6-6.6-1.72-8.18,1.23,7.91,5.37,7.91,5.37-7.51,1.06-7.51,3.15H439.8S441.25,385.68,432.68,384.49Z" style="fill:#fff;opacity:0.7000000000000001"></path><path d="M340,391c-.19-2.82.28-6.35,3.51-7.41,5.65-1.87,9-6.25,8.82-11.2s5.76-9.77,10.22-5.13,3.87-3.56,9.82-5.56,11,2.85,9.36,7.27,4.24,7.18,11.27,3.42,14.77,3.08,13.28,8.44-.27,5.95,4.18,4.16c3.53-1.41,9.26,1.48,10.09,6Z" style="fill:#607560"></path><path d="M121.28,391c.24-2.25,0-5.35-2.68-6.25-4.38-1.44-7-4.84-6.84-8.68s-4.47-7.59-7.94-4-3-2.76-7.62-4.31-8.53,2.21-7.27,5.64-3.29,5.58-8.75,2.66-11.46,2.39-10.3,6.54.21,4.62-3.25,3.24c-2.86-1.15-7.58,1.36-7.88,5.15Z" style="fill:#607560"></path><path d="M132.59,391H235.21c1.25-4.77-2.42-10.37-6.42-11.17-5-1-10-9.8-10.26-15.4s-9.24-22.83-23.24-12.19-9.74,1.57-19.87-1.42-16.52,5.61-12.07,12.06c0,0-10.18-2.55-14.37,6.95s0,15.4,0,15.4S136.45,384.84,132.59,391Z" style="fill:#607560"></path><path d="M132.59,391H235.21c1.25-4.77-2.42-10.37-6.42-11.17-5-1-10-9.8-10.26-15.4s-9.24-22.83-23.24-12.19-9.74,1.57-19.87-1.42-16.52,5.61-12.07,12.06c0,0-10.18-2.55-14.37,6.95s0,15.4,0,15.4S136.45,384.84,132.59,391Z" style="fill:#fff;opacity:0.6000000000000001"></path><path d="M170.36,384.49s4.35-7.53,2.77-12.86-8.31,4.65-8.31,4.65,1.72-12.49-4.22-14.86-7.38,13.32-7.38,13.32-6.07-13.23-14.25-10.11-2.11,16.6-2.11,16.6-6.59-1.72-8.17,1.23,7.91,5.37,7.91,5.37-7.52,1.06-7.52,3.15h48.4S178.93,385.68,170.36,384.49Z" style="fill:#607560"></path><path d="M170.36,384.49s4.35-7.53,2.77-12.86-8.31,4.65-8.31,4.65,1.72-12.49-4.22-14.86-7.38,13.32-7.38,13.32-6.07-13.23-14.25-10.11-2.11,16.6-2.11,16.6-6.59-1.72-8.17,1.23,7.91,5.37,7.91,5.37-7.52,1.06-7.52,3.15h48.4S178.93,385.68,170.36,384.49Z" style="fill:#fff;opacity:0.7000000000000001"></path><path d="M193.08,391s-1.83-7.88,2.38-10.53,8.67,3.34,8.67,3.34,4.84-13.12,11.17-12.13,4.75,9.89,4.75,9.89,3-5,7.91-4.46,1.58,7.69,1.58,7.69,4.15-3.82,7.71-2-1,5.37-1,5.37,8.89-.73,8.89,2.87Z" style="fill:#607560"></path><path d="M193.08,391s-1.83-7.88,2.38-10.53,8.67,3.34,8.67,3.34,4.84-13.12,11.17-12.13,4.75,9.89,4.75,9.89,3-5,7.91-4.46,1.58,7.69,1.58,7.69,4.15-3.82,7.71-2-1,5.37-1,5.37,8.89-.73,8.89,2.87Z" style="fill:#fff;opacity:0.7000000000000001"></path><path d="M121.28,391c.24-2.25,0-5.35-2.68-6.25-4.38-1.44-7-4.84-6.84-8.68s-4.47-7.59-7.94-4-3-2.76-7.62-4.31-8.53,2.21-7.27,5.64-3.29,5.58-8.75,2.66-11.46,2.39-10.3,6.54.21,4.62-3.25,3.24c-2.86-1.15-7.58,1.36-7.88,5.15Z" style="fill:#fff;opacity:0.6000000000000001"></path><path d="M123.18,391s2.68-4.51.73-6.75-5.29,2.56-5.29,2.56,2.89-9.34,0-11.2-6.35,9.17-6.35,9.17-1.77-9.66-6.81-9.38-2.53,10.51-2.53,10.51-4.61-2.71-6.26-2.06-1.54,3.09,1.76,4.84c0,0-5.39.35-5.39,2.31Z" style="fill:#607560"></path><path d="M123.18,391s2.68-4.51.73-6.75-5.29,2.56-5.29,2.56,2.89-9.34,0-11.2-6.35,9.17-6.35,9.17-1.77-9.66-6.81-9.38-2.53,10.51-2.53,10.51-4.61-2.71-6.26-2.06-1.54,3.09,1.76,4.84c0,0-5.39.35-5.39,2.31Z" style="fill:#fff;opacity:0.7000000000000001"></path><path d="M89.14,379.11c0-.15-1.81-15.51-8.21-21.85l.35-.36c6.53,6.47,8.34,22,8.36,22.16Z" style="fill:#607560"></path><path d="M85.06,380.83c-.09-.1-8.53-10-17-11l.06-.5c8.7,1,17.27,11.06,17.36,11.17Z" style="fill:#607560"></path><g style="opacity:0.4"><path d="M89.14,379.11c0-.15-1.81-15.51-8.21-21.85l.35-.36c6.53,6.47,8.34,22,8.36,22.16Z" style="fill:#fff"></path></g><g style="opacity:0.4"><path d="M85.06,380.83c-.09-.1-8.53-10-17-11l.06-.5c8.7,1,17.27,11.06,17.36,11.17Z" style="fill:#fff"></path></g><path d="M78.63,354.66s-2.47-3.37,1-3.46,1.49,3,1.49,3,4-1.38,4.14.79-2.76,1.37-2.76,1.37,1.91,2.69-1,3.18-2.39-1.68-2.39-1.68-.4,2.08-2.48.4,1-1.9,1-1.9-2.28,0-2.28-1.66S78.63,354.66,78.63,354.66Z" style="fill:#607560"></path><path d="M70.37,369.69s3.49,2.29.28,3.59S68.22,371,68.22,371s-3.3,2.7-4.16.7,2.11-2.23,2.11-2.23-2.72-1.87-.19-3.33,2.82.74,2.82.74-.35-2.08,2.19-1.23-.27,2.13-.27,2.13,2.12-.81,2.71.76S70.37,369.69,70.37,369.69Z" style="fill:#607560"></path><path d="M78.63,354.66s-2.47-3.37,1-3.46,1.49,3,1.49,3,4-1.38,4.14.79-2.76,1.37-2.76,1.37,1.91,2.69-1,3.18-2.39-1.68-2.39-1.68-.4,2.08-2.48.4,1-1.9,1-1.9-2.28,0-2.28-1.66S78.63,354.66,78.63,354.66Z" style="fill:#fff;opacity:0.7000000000000001"></path><path d="M70.37,369.69s3.49,2.29.28,3.59S68.22,371,68.22,371s-3.3,2.7-4.16.7,2.11-2.23,2.11-2.23-2.72-1.87-.19-3.33,2.82.74,2.82.74-.35-2.08,2.19-1.23-.27,2.13-.27,2.13,2.12-.81,2.71.76S70.37,369.69,70.37,369.69Z" style="fill:#fff;opacity:0.7000000000000001"></path><path d="M194.84,377.14a1,1,0,1,1-1-.95A1,1,0,0,1,194.84,377.14Z" style="fill:#fff;opacity:0.2"></path><path d="M214.85,371.7a1.91,1.91,0,1,1-1.91-1.91A1.9,1.9,0,0,1,214.85,371.7Z" style="fill:#fff;opacity:0.2"></path><path d="M191.31,363.44a1.91,1.91,0,1,1-1.91-1.91A1.91,1.91,0,0,1,191.31,363.44Z" style="fill:#fff;opacity:0.2"></path><path d="M207.28,359.14a1.19,1.19,0,1,1-1.19-1.18A1.18,1.18,0,0,1,207.28,359.14Z" style="fill:#fff;opacity:0.2"></path><path d="M340,391c-.19-2.82.28-6.35,3.51-7.41,5.65-1.87,9-6.25,8.82-11.2s5.76-9.77,10.22-5.13,3.87-3.56,9.82-5.56,11,2.85,9.36,7.27,4.24,7.18,11.27,3.42,14.77,3.08,13.28,8.44-.27,5.95,4.18,4.16c3.53-1.41,9.26,1.48,10.09,6Z" style="fill:#fff;opacity:0.6000000000000001"></path><path d="M395.39,381.69s2.52-3.33-.94-3.47-1.52,2.95-1.52,2.95-4-1.44-4.15.74,2.74,1.39,2.74,1.39-1.94,2.67.93,3.2,2.41-1.65,2.41-1.65.37,2.08,2.47.42-1-1.91-1-1.91,2.28.05,2.3-1.63S395.39,381.69,395.39,381.69Z" style="fill:#fff;opacity:0.2"></path><path d="M376.37,386.13s-1.25,1.81.57,1.81.74-1.58.74-1.58,2.15.67,2.17-.48-1.47-.68-1.47-.68,1-1.44-.56-1.66-1.23.92-1.23.92-.24-1.09-1.31-.18.55,1,.55,1-1.2,0-1.18.91S376.37,386.13,376.37,386.13Z" style="fill:#fff;opacity:0.2"></path><path d="M366.19,373s.91-2.75-1.39-2.07-.35,2.27-.35,2.27-3-.05-2.57,1.41S364,375,364,375s-.68,2.19,1.33,1.9,1.21-1.62,1.21-1.62.71,1.28,1.72-.27-1.06-1-1.06-1,1.51-.47,1.15-1.58S366.19,373,366.19,373Z" style="fill:#fff;opacity:0.2"></path><path d="M433.29,344.27s-2.39,3.43,1.08,3.44,1.4-3,1.4-3,4.07,1.28,4.12-.9-2.79-1.29-2.79-1.29,1.84-2.74-1.06-3.16-2.34,1.75-2.34,1.75-.45-2.07-2.49-.34,1.05,1.88,1.05,1.88-2.28,0-2.23,1.72S433.29,344.27,433.29,344.27Z" style="fill:#fff;opacity:0.7000000000000001"></path></g><g id="freepik--Tools--inject-3"><path d="M218.88,366.52l-3.83-1.76-7.49-3.45c-4.1,7.64-3.28,15.48-1.5,21.15a29,29,0,0,0,1.46,3.74,38.93,38.93,0,0,0,3.76-1.33c5.45-2.35,12-6.82,15.09-14.91Z" style="fill:#263238"></path><path d="M211.28,384.86a35.17,35.17,0,0,1-3.77,1.34,29.21,29.21,0,0,1-1.44-3.74c-1.78-5.67-2.6-13.52,1.5-21.15l18.8,8.66C223.24,378,216.72,382.51,211.28,384.86Z" style="fill:#fff;opacity:0.4"></path><path d="M211.28,384.86a35.17,35.17,0,0,1-3.77,1.34s9.74-9.31,9.46-20.56l9.4,4.33C223.24,378,216.72,382.51,211.28,384.86Z" style="fill:#fff;opacity:0.2"></path><path d="M228.87,344.14a1.82,1.82,0,1,0-3.31-1.53L215.28,365s0,0,0,.05a12.39,12.39,0,0,0-1.32,6,6.34,6.34,0,0,0,.1,1c.23-.15.51-.34.81-.58a12.4,12.4,0,0,0,3.68-4.87s0,0,.05-.07Z" style="fill:#263238"></path><path d="M228.87,344.14a1.82,1.82,0,1,0-3.31-1.53L215.28,365s0,0,0,.05a12.39,12.39,0,0,0-1.32,6,6.34,6.34,0,0,0,.1,1c.23-.15.51-.34.81-.58a12.4,12.4,0,0,0,3.68-4.87s0,0,.05-.07Z" style="fill:#fff;opacity:0.6000000000000001"></path><polygon points="229.63 382.62 192.08 382.62 196.28 410.7 225.43 410.7 229.63 382.62" style="fill:#263238"></polygon><polygon points="229.63 382.62 192.08 382.62 196.28 410.7 225.43 410.7 229.63 382.62" style="fill:#fff;opacity:0.4"></polygon><rect x="191.04" y="379.75" width="39.62" height="4.96" style="fill:#263238"></rect><rect x="191.04" y="379.75" width="39.62" height="4.96" style="fill:#fff;opacity:0.2"></rect></g><g id="freepik--Sprouts--inject-3"><path d="M154.24,394.89s1-1.24-.9-2-1.46-1.19-2.36-3.64-3.56-2.18-4.65-2.19-1.81-3-3.58-2.62a1.8,1.8,0,0,1,.46,1.51c-.22.77-1.15,2.79.74,3.4s1.13,1.91,2.19,3.91,3.82.89,5.21,1.81A2.69,2.69,0,0,0,154.24,394.89Z" style="fill:#607560"></path><path d="M158.67,368.54s1.49-.27.62-3.52.57-3.34,1-6.49-2.73-8.06-2.73-8.06-4.88,5.69-4.29,8.47,1.74,3.53,1.71,5.89S158.67,368.54,158.67,368.54Z" style="fill:#607560"></path><path d="M165.39,378.09a3.3,3.3,0,0,1,.54-3.83,11,11,0,0,0,3.09-5.88c.56-2.73,3-2.92,3.51-3.65s.92-2.16,2.12-2.41a12.13,12.13,0,0,1-.28,5.79c-1,2.45-2.16,4.05-2.62,6.25S168.2,378.68,165.39,378.09Z" style="fill:#607560"></path><path d="M155.1,379a5.52,5.52,0,0,0-3.27-4.37c-3.15-1.56-2.46-4.41-4.26-5.79s-4.39-3.38-4.39-3.38-.93,5.48.7,7.42a23.32,23.32,0,0,0,4.46,4.74C150.94,379.7,155.1,379,155.1,379Z" style="fill:#607560"></path><path d="M173.79,381a35.74,35.74,0,0,0-.65,5.44c0,2.22-5,8.32-10.92,8.13a4.06,4.06,0,0,1,.72-3.89c1.53-1.71,4.27-1.62,5.43-5.66S173.79,381,173.79,381Z" style="fill:#607560"></path><path d="M147.49,390a.34.34,0,0,1,.46,0c2,2.26,7.74,5.3,9.32,6.12a43.66,43.66,0,0,1,1.68-8.81,23.84,23.84,0,0,0,1-5.43c-1.73-.8-10.09-4.87-13.42-10a.33.33,0,0,1,.1-.45.31.31,0,0,1,.44.1c3.06,4.72,10.81,8.66,12.92,9.66a46.57,46.57,0,0,0-1.58-12c-1-4.63-2-9-.79-13.1a.33.33,0,0,1,.41-.21.32.32,0,0,1,.21.4c-1.19,3.93-.22,8.22.8,12.76a47.49,47.49,0,0,1,1.6,12.2,27.7,27.7,0,0,0,11.22-13.16.33.33,0,0,1,.42-.19.32.32,0,0,1,.19.41c0,.09-3.3,9-11.88,13.72a24.58,24.58,0,0,1-1,5.5,42.6,42.6,0,0,0-1.65,8.63,29.53,29.53,0,0,0,12.06-8.4.32.32,0,0,1,.51.39,30.16,30.16,0,0,1-12.62,8.72,27.92,27.92,0,0,0,1.08,10.8.34.34,0,0,1-.18.42h-.08a.32.32,0,0,1-.34-.2,28.7,28.7,0,0,1-1.13-11.05c-1.14-.58-7.54-3.88-9.76-6.39A.34.34,0,0,1,147.49,390Z" style="fill:#263238"></path><path d="M147.49,390a.34.34,0,0,1,.46,0c2,2.26,7.74,5.3,9.32,6.12a43.66,43.66,0,0,1,1.68-8.81,23.84,23.84,0,0,0,1-5.43c-1.73-.8-10.09-4.87-13.42-10a.33.33,0,0,1,.1-.45.31.31,0,0,1,.44.1c3.06,4.72,10.81,8.66,12.92,9.66a46.57,46.57,0,0,0-1.58-12c-1-4.63-2-9-.79-13.1a.33.33,0,0,1,.41-.21.32.32,0,0,1,.21.4c-1.19,3.93-.22,8.22.8,12.76a47.49,47.49,0,0,1,1.6,12.2,27.7,27.7,0,0,0,11.22-13.16.33.33,0,0,1,.42-.19.32.32,0,0,1,.19.41c0,.09-3.3,9-11.88,13.72a24.58,24.58,0,0,1-1,5.5,42.6,42.6,0,0,0-1.65,8.63,29.53,29.53,0,0,0,12.06-8.4.32.32,0,0,1,.51.39,30.16,30.16,0,0,1-12.62,8.72,27.92,27.92,0,0,0,1.08,10.8.34.34,0,0,1-.18.42h-.08a.32.32,0,0,1-.34-.2,28.7,28.7,0,0,1-1.13-11.05c-1.14-.58-7.54-3.88-9.76-6.39A.34.34,0,0,1,147.49,390Z" style="fill:#fff;opacity:0.2"></path><path d="M174.73,412.52a.52.52,0,0,0-.19-.2,3.29,3.29,0,0,1-.47-.19c-.26-.17-.13-.47-.3-.69s-.7-.26-1-.45a3.33,3.33,0,0,1-.61-.7,13.54,13.54,0,0,0-1.87-1.73c-.94-.74-2.57-.83-3.95-.89a5.45,5.45,0,0,1-3.08-1.07,5.4,5.4,0,0,0-1.87-.72c-.79-.11-1.6,0-2.4,0s-1.68-.46-1.52-1c-.82.24-1.8-.18-2.65,0a3,3,0,0,0-.89.44L151.48,407a3.57,3.57,0,0,1-1.14.56c-.31.07-.64.08-1,.13a7.44,7.44,0,0,0-2.3,1c-.54.25-1.61.29-2,.61a2,2,0,0,0-.47.72,1.11,1.11,0,0,1-.72.6.59.59,0,0,0-.2.06.23.23,0,0,0-.11.26c.05.31.11.72-.33.85-.22.06-.49,0-.72.05-.63.11-.72.38-.52.7Z" style="fill:#263238"></path><path d="M108.26,367.27s-1.59,0-1-2,0-1.89-1.33-4.12.57-4.14,1.25-5-1.16-3.29.23-4.44a1.81,1.81,0,0,0,.88,1.31c.74.33,2.89.88,2.17,2.73s.76,2.08,1.64,4.17-1.72,3.52-1.88,5.18A2.71,2.71,0,0,1,108.26,367.27Z" style="fill:#607560"></path><path d="M104.72,394.71s.92-1.21-1.93-3-1.84-2.84-3.62-5.49-7.45-4.09-7.45-4.09.24,7.49,2.56,9.15,3.67,1.42,5.24,3.18S104.72,394.71,104.72,394.71Z" style="fill:#607560"></path><path d="M101.23,378.09a3.31,3.31,0,0,0-.55-3.83,10.92,10.92,0,0,1-3.08-5.88c-.56-2.73-3-2.92-3.52-3.65s-.91-2.16-2.11-2.41a12.13,12.13,0,0,0,.28,5.79c1,2.45,2.15,4.05,2.61,6.25S98.42,378.68,101.23,378.09Z" style="fill:#607560"></path><path d="M110.53,396.13a5.53,5.53,0,0,1,3.46-4.21c3.21-1.42,2.66-4.3,4.51-5.59l4.54-3.19s.69,5.52-1,7.39a23.58,23.58,0,0,1-4.67,4.53C114.65,397,110.53,396.13,110.53,396.13Z" style="fill:#607560"></path><path d="M123.91,367.73a36.23,36.23,0,0,0-1.39,5.3c-.31,2.2-6.13,7.56-11.93,6.56a4.06,4.06,0,0,1,1.25-3.75c1.75-1.49,4.45-1,6.15-4.87S123.91,367.73,123.91,367.73Z" style="fill:#607560"></path><path d="M119.12,390a.33.33,0,0,0-.45,0c-2,2.26-7.74,5.3-9.33,6.12a43,43,0,0,0-1.68-8.81,24.4,24.4,0,0,1-1-5.43c1.73-.8,10.1-4.87,13.42-10a.32.32,0,1,0-.54-.35c-3,4.72-10.81,8.66-12.91,9.66a46.14,46.14,0,0,1,1.58-12c1-4.63,2-9,.78-13.1a.32.32,0,0,0-.4-.21.32.32,0,0,0-.22.4c1.19,3.93.23,8.22-.79,12.76a47.06,47.06,0,0,0-1.6,12.2A27.68,27.68,0,0,1,94.8,368.11a.32.32,0,0,0-.61.22c0,.09,3.31,9,11.88,13.72a25.16,25.16,0,0,0,1,5.5,43.39,43.39,0,0,1,1.66,8.63,29.53,29.53,0,0,1-12.06-8.4.33.33,0,0,0-.46-.06.32.32,0,0,0-.06.45,30.33,30.33,0,0,0,12.63,8.72,28.16,28.16,0,0,1-1.08,10.8.32.32,0,0,0,.18.42h.08a.32.32,0,0,0,.34-.2,28.6,28.6,0,0,0,1.12-11.05c1.15-.58,7.55-3.88,9.76-6.39A.32.32,0,0,0,119.12,390Z" style="fill:#263238"></path><path d="M119.12,390a.33.33,0,0,0-.45,0c-2,2.26-7.74,5.3-9.33,6.12a43,43,0,0,0-1.68-8.81,24.4,24.4,0,0,1-1-5.43c1.73-.8,10.1-4.87,13.42-10a.32.32,0,1,0-.54-.35c-3,4.72-10.81,8.66-12.91,9.66a46.14,46.14,0,0,1,1.58-12c1-4.63,2-9,.78-13.1a.32.32,0,0,0-.4-.21.32.32,0,0,0-.22.4c1.19,3.93.23,8.22-.79,12.76a47.06,47.06,0,0,0-1.6,12.2A27.68,27.68,0,0,1,94.8,368.11a.32.32,0,0,0-.61.22c0,.09,3.31,9,11.88,13.72a25.16,25.16,0,0,0,1,5.5,43.39,43.39,0,0,1,1.66,8.63,29.53,29.53,0,0,1-12.06-8.4.33.33,0,0,0-.46-.06.32.32,0,0,0-.06.45,30.33,30.33,0,0,0,12.63,8.72,28.16,28.16,0,0,1-1.08,10.8.32.32,0,0,0,.18.42h.08a.32.32,0,0,0,.34-.2,28.6,28.6,0,0,0,1.12-11.05c1.15-.58,7.55-3.88,9.76-6.39A.32.32,0,0,0,119.12,390Z" style="fill:#fff;opacity:0.2"></path><path d="M123.7,412.52a.55.55,0,0,0-.2-.2,3.71,3.71,0,0,1-.46-.19c-.26-.17-.13-.47-.31-.69s-.69-.26-1-.45a3.33,3.33,0,0,1-.61-.7,13.54,13.54,0,0,0-1.87-1.73c0-.88-3.32-.72-3.83-.72a.85.85,0,0,1-.32,0,.86.86,0,0,1-.32-.31c-.28-.41-.58-.89-1.07-1a1.53,1.53,0,0,1-.53-.13c-.2-.12-.27-.38-.45-.53a1.06,1.06,0,0,0-.56-.17l-1.44-.17a1.07,1.07,0,0,0-.21-1.11c-.24-.32-.57-.57-.78-.91-.47-.74-.82-1.05-1.56-.36a11.15,11.15,0,0,1-2.67,2.16,5.31,5.31,0,0,1-1.63.23c-1.49.2-1.69,1.05-2.78,1.78-.56.39-2.06.31-2.78.42a7.44,7.44,0,0,0-2.3,1c-.55.25-1.62.29-2,.61a2,2,0,0,0-.47.72,1.11,1.11,0,0,1-.72.6.73.73,0,0,0-.21.06.23.23,0,0,0-.1.26c0,.31.11.72-.33.85-.23.06-.49,0-.72.05-.63.11-.72.38-.52.7Z" style="fill:#263238"></path><path d="M252.19,420.83H206.82c2.43-2.93,5.64-4.48,8.36-7.05a3.27,3.27,0,0,1,2.81-.31,3.53,3.53,0,0,0,2.68,1.34,6.65,6.65,0,0,1,1.61.06c1.31.39,2,2.3,3.37,2.09.37,0,.71-.29,1.09-.32.94-.1,1.59,1,2.49,1.24.55.18,1.16,0,1.72.19a5.58,5.58,0,0,1,1.11.51,9.16,9.16,0,0,0,4.63.48c.66,0,1.57-.45,1.3-1.06,1,.06,2.32,0,2.73-1,.23-.52.16-1.25.66-1.52a1.68,1.68,0,0,1,.59-.12,12.94,12.94,0,0,0,2.4-.65,3.59,3.59,0,0,1,2.44,0,1.6,1.6,0,0,1,.9,2,2.93,2.93,0,0,1,3.23,1.74C251.07,418.74,252,420.83,252.19,420.83Z" style="fill:#263238"></path><path d="M166.08,421H133.7a24.91,24.91,0,0,1,2.84-1.71c.79-.32,2.64.31,3.69,0s1.72-1.11,3.17-1.24,2.37-2.51,3.82-2.05,4.09-.2,4.62,0a16.72,16.72,0,0,1,2.9,1.11c.52.41,2.63,1.51,3,1.36a6.37,6.37,0,0,1,2.24,0,7.12,7.12,0,0,1,2,.82S164.89,419,166.08,421Z" style="fill:#263238"></path></g><g id="freepik--Character--inject-3"><path d="M270.8,305.57l1.68-6.1c-.63-6.62-9-4.34-9-4.34l-6.45-.88a3.35,3.35,0,0,0-3.46,2.62l-1.21,4.26a3.5,3.5,0,0,0,2.06,4.42l5.76,1.44a7,7,0,0,0,3.37.13Z" style="fill:#b55b52"></path><path d="M270.8,305.57l1.68-6.1c-.63-6.62-9-4.34-9-4.34l-6.45-.88a3.35,3.35,0,0,0-3.46,2.62l-1.21,4.26a3.5,3.5,0,0,0,2.06,4.42l5.76,1.44a7,7,0,0,0,3.37.13Z" style="opacity:0.1"></path><path d="M280.78,283.67a35.42,35.42,0,0,1-1.3,6.39c-.27.82-.54,1.62-.85,2.39-.17.36-.31.77-.5,1.12a10.26,10.26,0,0,0-.45,1,11.86,11.86,0,0,1-1.14,2.29,5,5,0,0,1-2.86,1.7,14.41,14.41,0,0,1-2.49.4c-.45,0-.92.05-1.39.06h-1c-.09,0-.25,0-.22.07a5.43,5.43,0,0,0-5.23,9.51l1.09.87c.33.26.65.49,1,.72a19.47,19.47,0,0,0,2.06,1.25,21.3,21.3,0,0,0,4.65,1.86,20.38,20.38,0,0,0,5.47.71,19.79,19.79,0,0,0,6-1,21.75,21.75,0,0,0,10-6.89,22.72,22.72,0,0,0,1.57-2.08c.49-.67.89-1.36,1.33-2a39.76,39.76,0,0,0,2.22-4.23,52,52,0,0,0,3-8.7,61.43,61.43,0,0,0,1.39-8.68l.06-.95Z" style="fill:#b65b52"></path><g style="opacity:0.1"><path d="M280.78,283.67a35.42,35.42,0,0,1-1.3,6.39c-.27.82-.54,1.62-.85,2.39-.17.36-.31.77-.5,1.12a10.26,10.26,0,0,0-.45,1,11.86,11.86,0,0,1-1.14,2.29,5,5,0,0,1-2.86,1.7,14.41,14.41,0,0,1-2.49.4c-.45,0-.92.05-1.39.06h-1c-.09,0-.25,0-.22.07a5.43,5.43,0,0,0-5.23,9.51l1.09.87c.33.26.65.49,1,.72a19.47,19.47,0,0,0,2.06,1.25,21.3,21.3,0,0,0,4.65,1.86,20.38,20.38,0,0,0,5.47.71,19.79,19.79,0,0,0,6-1,21.75,21.75,0,0,0,10-6.89,22.72,22.72,0,0,0,1.57-2.08c.49-.67.89-1.36,1.33-2a39.76,39.76,0,0,0,2.22-4.23,52,52,0,0,0,3-8.7,61.43,61.43,0,0,0,1.39-8.68l.06-.95Z"></path></g><path d="M290.55,256.46C283.38,260.3,278,286.9,278,286.9l17,5.71,7.39-20Z" style="fill:#263238"></path><path d="M290.55,256.46C283.38,260.3,278,286.9,278,286.9l17,5.71,7.39-20Z" style="fill:#fff;opacity:0.8"></path><path d="M301.37,267.29s-18.59,10.91-14.73,28.88S309.07,278.37,301.37,267.29Z" style="opacity:0.2"></path><path d="M293.35,254.42a189.32,189.32,0,0,1,38.42-16.36,14.09,14.09,0,0,1,17.54,10.56c7.35,32.52,26.62,63.88,25.75,72.27,0,0-42,19.56-67.4,28.83-21.18-29.41-16.73-55.17-21.31-83.46C285.56,261.42,289.11,256.87,293.35,254.42Z" style="fill:#263238"></path><path d="M375.06,320.9s-40.31,18.78-65.85,28.26l-1.55.57c-.94-1.31-1.84-2.62-2.67-3.91l0,0a88.88,88.88,0,0,1-11.41-25.16c-5.09-18.21-4.19-35.74-7.21-54.38-.78-4.83,2.76-9.39,7-11.83a189.08,189.08,0,0,1,38.42-16.36,14.08,14.08,0,0,1,17.53,10.56c.91,4,2,8,3.22,12,1.76,5.73,3.78,11.33,5.87,16.69,3.36,8.61,6.91,16.58,9.86,23.37h0C372.43,310.24,375.42,317.48,375.06,320.9Z" style="fill:#fff;opacity:0.8"></path><path d="M304.54,416.71l-4-.14-.81-1.36L298,416.49l-7.67,1.2a20.45,20.45,0,0,1-8.42-.41l-5.66-1.46a8.91,8.91,0,0,1,2-4.14s5.7.46,9.69-3.35a2,2,0,0,1,1.79-.29c2.62.61,9.58,2,13.58.64a.62.62,0,0,1,.79.61A46.67,46.67,0,0,0,304.54,416.71Z" style="fill:#263238"></path><path d="M348.25,363.15c-6.2,5.12-13.71,8.41-31.54,7.66-5.34-.22-11.61-.81-19-1.82q-5.31-.72-11.45-1.73l12,27.49-11.85,12s-35.91-33.43-46.23-57,36-31,64.61-26S348.25,363.15,348.25,363.15Z" style="fill:#607560"></path><path d="M310.19,349.73c-3.62-1.87-9.08-7.69-9.08-7.69s-4.75-8.29-6.58-16.19c-.28-1.2-.52-2.44-.73-3.69A89.25,89.25,0,0,1,292.56,307a113,113,0,0,1,1.76-19.79L336.39,276s17.45,25.93,31.87,24.62a67.47,67.47,0,0,1,11.65,33.56C381.1,353.93,323.72,356.73,310.19,349.73Z" style="fill:#607560"></path><path d="M316.71,370.81c-5.34-.22-11.61-.81-19-1.82,2.16-3.75,8.92-12.4,26.26-14.86C323.93,354.13,324.17,365.68,316.71,370.81Z" style="opacity:0.2"></path><path d="M289.3,409.86l-15.42-14.71,20.9-9.42s12.47,24.57,10.7,24.17S296.31,414.05,289.3,409.86Z" style="fill:#263238"></path><path d="M379.9,334.22c1.19,11.53-2.31,23.21-31,53.88l29.55,7.23,3.43,15.52s-47.73,10.33-73.05,5.85-5.8-47.19,14.24-68.17S379.9,334.22,379.9,334.22Z" style="fill:#607560"></path><path d="M390.71,392l2.62,3-.43,1.52,2.16.43,6.13,4.74a20.76,20.76,0,0,1,5.48,6.42l2.82,5.12a9,9,0,0,1-4.41,1.35s-3.58-4.47-9.09-4.76a2,2,0,0,1-1.45-1.1c-1.35-2.33-5.11-8.34-8.85-10.32a.61.61,0,0,1-.09-1A47.38,47.38,0,0,0,390.71,392Z" style="fill:#263238"></path><path d="M385.6,396.35l-21.16-6.44,4.48,23.77s28.51-3.82,27.07-4.92S393.31,399.05,385.6,396.35Z" style="fill:#263238"></path><path d="M299.17,257.59a7.25,7.25,0,0,1,1.17-5.36,11.76,11.76,0,0,0-3.16-5.45l13.44-13.44c2.66,7.26,4.77,13,8.87,15.39-1.93,3.8-5.54,10.68-12.49,13.2S299.76,260.85,299.17,257.59Z" style="fill:#b55b52"></path><path d="M297.7,247.35l12.48-6.14c-1,6.72-6,11.12-10.07,10.18A12.06,12.06,0,0,0,297.7,247.35Z" style="opacity:0.2"></path><path d="M306.58,262.08l1.16-3.87,5.12.69S312.05,262.52,306.58,262.08Z" style="fill:#263238"></path><path d="M306.58,262.08l1.16-3.87,5.12.69S312.05,262.52,306.58,262.08Z" style="fill:#fff;opacity:0.6000000000000001"></path><path d="M315.57,244.69s-.79,10.18-7.83,13.52c5.66.63,9.74,5.91,9.74,5.91s7.13-6.9,2-18.88A4.23,4.23,0,0,0,315.57,244.69Z" style="fill:#263238"></path><path d="M306.58,262.08,301.37,260l-3.21,3.05S303.68,265.88,306.58,262.08Z" style="fill:#263238"></path><path d="M306.58,262.08,301.37,260l-3.21,3.05S303.68,265.88,306.58,262.08Z" style="fill:#fff;opacity:0.6000000000000001"></path><path d="M300.34,252.23s-.51,5,1,7.79c-2.73,2.5-.84,9-.84,9s-5.67-8.09-3-14.73C298.17,252.76,300.34,252.23,300.34,252.23Z" style="fill:#263238"></path><path d="M315.57,244.69s-.79,10.18-7.83,13.52c5.66.63,9.74,5.91,9.74,5.91s7.13-6.9,2-18.88A4.23,4.23,0,0,0,315.57,244.69Z" style="fill:#fff;opacity:0.7000000000000001"></path><path d="M300.34,252.23s-.51,5,1,7.79c-2.73,2.5-.84,9-.84,9s-5.67-8.09-3-14.73C298.17,252.76,300.34,252.23,300.34,252.23Z" style="fill:#fff;opacity:0.7000000000000001"></path><path d="M272.1,233.77c-.59,1.87,6.94,3.23,22.21,1.57s28.14-8,27-8.85-14-6.68-27-4.79S272.1,233.77,272.1,233.77Z" style="fill:#607560"></path><path d="M272.1,233.77c-.59,1.87,6.94,3.23,22.21,1.57s28.14-8,27-8.85-14-6.68-27-4.79S272.1,233.77,272.1,233.77Z" style="opacity:0.2"></path><path d="M293,224.74c-2.7-3.71-8.95-2.13-12.07,2.77s.48,11.34,5.88,12.4S293,224.74,293,224.74Z" style="fill:#263238"></path><path d="M307.81,223.49c2.77,8.76,4.46,14.78.65,20.66-7.56,11.66-15.59,9.73-21.06,2.15-4.93-6.83-8.64-20-1.13-27.17S305,214.74,307.81,223.49Z" style="fill:#b55b52"></path><path d="M299.4,223.47c-.87,3.68,4.49,13.91,7.85,11.5a60.59,60.59,0,0,0,6.45-5.49s3.32-4.53-3.4-9.58S299.4,223.47,299.4,223.47Z" style="fill:#263238"></path><path d="M295.15,230.46a4.54,4.54,0,0,1,3.13-1.48A9.05,9.05,0,0,1,295.15,230.46Z" style="opacity:0.2"></path><path d="M295.55,231.18a3.75,3.75,0,0,1,3.09-.59A7.4,7.4,0,0,1,295.55,231.18Z" style="opacity:0.2"></path><path d="M283.55,226.83a42.17,42.17,0,0,1,7.72-4C287.05,225.22,283.55,226.83,283.55,226.83Z" style="opacity:0.2"></path><path d="M282.87,228.23s5.93-3,9.27-3.48A78.56,78.56,0,0,1,282.87,228.23Z" style="opacity:0.2"></path><path d="M315,231.19a9.31,9.31,0,0,1-3.83,6c-2.71,1.86-5.15-.3-5.31-3.4-.14-2.8,1.1-7.13,4.25-7.76S315.48,228.2,315,231.19Z" style="fill:#b55b52"></path><path d="M292.7,231.93c.31.74.16,1.5-.32,1.7s-1.13-.25-1.44-1-.16-1.5.33-1.7S292.4,231.19,292.7,231.93Z" style="fill:#263238"></path><path d="M285.12,235.29c.31.75.16,1.51-.32,1.7s-1.13-.24-1.44-1-.16-1.51.33-1.7S284.82,234.55,285.12,235.29Z" style="fill:#263238"></path><path d="M287.91,234.83l2.64,6.21a7.6,7.6,0,0,1-2.15,1,.88.88,0,0,1-1-1.18C288.31,238.57,287.91,234.83,287.91,234.83Z" style="fill:#a02724"></path><path d="M295.77,228.18a.4.4,0,0,0,.17-.17.46.46,0,0,0-.17-.64,4.72,4.72,0,0,0-4.3-.36.47.47,0,0,0-.21.63.48.48,0,0,0,.63.22h0a3.73,3.73,0,0,1,3.4.32A.48.48,0,0,0,295.77,228.18Z" style="fill:#263238"></path><path d="M281.33,234.5a.48.48,0,0,0,.28-.35,3.7,3.7,0,0,1,2-2.76.46.46,0,0,0,.24-.61.47.47,0,0,0-.62-.25,4.67,4.67,0,0,0-2.54,3.45.48.48,0,0,0,.39.55A.49.49,0,0,0,281.33,234.5Z" style="fill:#263238"></path><path d="M288.68,245.17s2.72-2.09,11.28-6c.17,3-.74,6-5.14,8S288.68,245.17,288.68,245.17Z" style="fill:#263238"></path><path d="M295.93,244.16a8.82,8.82,0,0,0-4.2,3.43,5.14,5.14,0,0,0,3.09-.48,8.73,8.73,0,0,0,4.19-3.43A5.11,5.11,0,0,0,295.93,244.16Z" style="fill:#a02724"></path><path d="M289,244.92a1.94,1.94,0,0,0,1.93.66,49.17,49.17,0,0,0,7.27-4.11,2.62,2.62,0,0,0,1.36-2.14A77.45,77.45,0,0,0,289,244.92Z" style="fill:#fff"></path><path d="M280,224.75s1.29-11.66,2.3-13.44,11.69-5.63,21.08-3.85,6.83,5.63,6.83,5.63,2.64,5.61,2.36,6.56S280,224.75,280,224.75Z" style="fill:#607560"></path><path d="M280,224.75s1.29-11.66,2.3-13.44,11.69-5.63,21.08-3.85,6.83,5.63,6.83,5.63,2.64,5.61,2.36,6.56S280,224.75,280,224.75Z" style="opacity:0.2"></path><path d="M279.36,225.36l-7.26,8.41a49,49,0,0,1,22.35-10.39c13.16-2.18,26.89,3.11,26.89,3.11l-9.48-7.36S289,215.1,279.36,225.36Z" style="fill:#607560"></path><path d="M329.28,277.93s-5-19.94-2.58-38.3l5.07-1.57s-1.68,16,3,38.42Z" style="fill:#607560"></path><path d="M299.59,285.82a87.58,87.58,0,0,1-2.5-33.38l-3.74,2s-3.17,11.6,2.2,32.48Z" style="fill:#607560"></path><path d="M329.28,277.93s-5-19.94-2.58-38.3l5.07-1.57s-1.68,16,3,38.42Z" style="opacity:0.2"></path><path d="M299.59,285.82a87.58,87.58,0,0,1-2.5-33.38l-3.74,2s-3.17,11.6,2.2,32.48Z" style="opacity:0.2"></path><path d="M328.38,272.64l5.58-.89a.59.59,0,0,1,.67.48l.76,4.07a.6.6,0,0,1-.48.69l-5.53,1a.59.59,0,0,1-.68-.46l-.8-4.16A.59.59,0,0,1,328.38,272.64Z" style="fill:#263238"></path><path d="M294.4,282c1-.25,2.92-.7,3.91-.93a.63.63,0,0,1,.74.47l.85,3.81a.61.61,0,0,1-.47.74l-3.87.82a.62.62,0,0,1-.73-.47l-.88-3.7A.61.61,0,0,1,294.4,282Z" style="fill:#263238"></path><path d="M304.67,332.38c-7.74-1.58-10.61-9.9-10.61-9.9s-.17-.21-.26-.32A89.25,89.25,0,0,1,292.56,307C294.53,327,304.67,332.38,304.67,332.38Z" style="opacity:0.2"></path><path d="M312.86,333.21s38.76-4.8,57-21.61C369.82,311.6,357.19,329.31,312.86,333.21Z" style="opacity:0.2"></path><path d="M358.4,277.29a33.78,33.78,0,0,1-14.57,8.22,25.13,25.13,0,0,1-7,.72c-5.15-.21-3.83-4.23.12-9.44s10.28-11.32,15.62-16.19C354.29,266.33,356.31,271.93,358.4,277.29Z" style="opacity:0.2"></path><path d="M352.15,266.94l-.27,1-.23.78c-.15.5-.3,1-.46,1.44-.33.93-.68,1.82-1,2.71a53.13,53.13,0,0,1-2.47,5.09,58.53,58.53,0,0,1-6.37,9.26c-1.22,1.42-2.52,2.79-3.87,4.1a47.09,47.09,0,0,1-4.27,3.71c-.75.59-1.49,1.11-2.3,1.7l-1.54,1.07-1.48.88a37.37,37.37,0,0,1-5.56,2.49A67.1,67.1,0,0,1,312,303.93c-3.35.64-6.64,1.1-9.92,1.4a126.67,126.67,0,0,1-19.58.44A5.49,5.49,0,0,1,281.3,295l.2-.05c5.82-1.67,11.82-3.3,17.52-5.09,2.86-.91,5.67-1.84,8.36-2.84a66.36,66.36,0,0,0,7.48-3.25,24.59,24.59,0,0,0,2.79-1.74l.5-.39a3.51,3.51,0,0,1,.34-.33c.38-.4.87-.88,1.27-1.34a48.75,48.75,0,0,0,4.64-5.88,56,56,0,0,0,3.8-6.48c.56-1.12,1.1-2.25,1.57-3.38.25-.55.48-1.11.69-1.65l.3-.77.14-.34.05-.14s0-.13,0,0a11,11,0,1,1,21.2,5.58Z" style="fill:#b65b52"></path><path d="M338.1,237.91c14.24,1.29,20.71,14.19,19.25,26.47s-11.2,18.74-11.2,18.74L325.31,272.7s6.33-14.1,8.44-21.62S338.1,237.91,338.1,237.91Z" style="fill:#263238"></path><path d="M338.1,237.91c14.24,1.29,20.71,14.19,19.25,26.47s-11.2,18.74-11.2,18.74L325.31,272.7s6.33-14.1,8.44-21.62S338.1,237.91,338.1,237.91Z" style="fill:#fff;opacity:0.8"></path><path d="M267.67,276.16s-1.14-1.11.64-2.13,1.3-1.36,1.88-3.9,3.26-2.62,4.33-2.76,1.43-3.18,3.23-3.06a1.82,1.82,0,0,0-.27,1.56c.31.74,1.5,2.62-.3,3.47s-.88,2-1.68,4.15-3.68,1.36-4.94,2.46A2.71,2.71,0,0,1,267.67,276.16Z" style="fill:#607560"></path><path d="M260.06,277s.75-1.32-2.3-2.75-2.18-2.59-4.28-5-7.91-3.12-7.91-3.12,1.18,7.4,3.69,8.75,3.82,1,5.6,2.5S260.06,277,260.06,277Z" style="fill:#607560"></path><path d="M254.49,260.9a3.3,3.3,0,0,0-1-3.73,10.93,10.93,0,0,1-3.8-5.44c-.9-2.64-3.39-2.52-3.95-3.18s-1.18-2-2.4-2.13a12,12,0,0,0,1,5.71c1.26,2.31,2.65,3.75,3.38,5.87S251.78,261.84,254.49,260.9Z" style="fill:#607560"></path><path d="M264.81,260.49a5.54,5.54,0,0,1,2.7-4.75c2.92-2,1.88-4.69,3.49-6.28s3.93-3.91,3.93-3.91,1.62,5.32.24,7.45a23.35,23.35,0,0,1-3.83,5.27C269,260.68,264.81,260.49,264.81,260.49Z" style="fill:#607560"></path><path d="M257.53,234a36,36,0,0,0,3.61,4.12c1.65,1.49,2.83,9.31-1.24,13.55a4,4,0,0,1-2.41-3.13c-.26-2.28,1.64-4.25-.59-7.82S257.53,234,257.53,234Z" style="fill:#607560"></path><path d="M273.75,270.48a.32.32,0,0,0-.45.09c-1.68,2.48-7,6.23-8.47,7.24a43.43,43.43,0,0,0-2.78-8.52,24,24,0,0,1-1.63-5.27c1.61-1,9.4-6.11,12.05-11.63a.32.32,0,1,0-.58-.28c-2.43,5.07-9.63,10-11.59,11.22a46.26,46.26,0,0,1,.05-12.12c.45-4.72.87-9.19-.87-13.09a.33.33,0,0,0-.43-.16.32.32,0,0,0-.16.43c1.67,3.74,1.26,8.12.82,12.76a46.76,46.76,0,0,0,0,12.3,27.68,27.68,0,0,1-12.8-11.64.32.32,0,1,0-.57.3c0,.08,4.41,8.51,13.51,12.1a24.46,24.46,0,0,0,1.66,5.34,43.79,43.79,0,0,1,2.73,8.35,29.46,29.46,0,0,1-13-6.81.33.33,0,0,0-.46,0,.34.34,0,0,0,0,.46,30.12,30.12,0,0,0,13.63,7.06,28.28,28.28,0,0,1,.29,10.85.32.32,0,0,0,.23.39h.08a.33.33,0,0,0,.31-.24c0-.06,1-4.36-.28-11.11,1.07-.72,7-4.8,8.88-7.57A.32.32,0,0,0,273.75,270.48Z" style="fill:#263238"></path><path d="M273.75,270.48a.32.32,0,0,0-.45.09c-1.68,2.48-7,6.23-8.47,7.24a43.43,43.43,0,0,0-2.78-8.52,24,24,0,0,1-1.63-5.27c1.61-1,9.4-6.11,12.05-11.63a.32.32,0,1,0-.58-.28c-2.43,5.07-9.63,10-11.59,11.22a46.26,46.26,0,0,1,.05-12.12c.45-4.72.87-9.19-.87-13.09a.33.33,0,0,0-.43-.16.32.32,0,0,0-.16.43c1.67,3.74,1.26,8.12.82,12.76a46.76,46.76,0,0,0,0,12.3,27.68,27.68,0,0,1-12.8-11.64.32.32,0,1,0-.57.3c0,.08,4.41,8.51,13.51,12.1a24.46,24.46,0,0,0,1.66,5.34,43.79,43.79,0,0,1,2.73,8.35,29.46,29.46,0,0,1-13-6.81.33.33,0,0,0-.46,0,.34.34,0,0,0,0,.46,30.12,30.12,0,0,0,13.63,7.06,28.28,28.28,0,0,1,.29,10.85.32.32,0,0,0,.23.39h.08a.33.33,0,0,0,.31-.24c0-.06,1-4.36-.28-11.11,1.07-.72,7-4.8,8.88-7.57A.32.32,0,0,0,273.75,270.48Z" style="fill:#fff;opacity:0.2"></path><path d="M255.2,294.22c-.35-.49-.45-.93.11-1.09.15,0,.32,0,.47-.05s.24-.53.21-.84a.33.33,0,0,1,.07-.27.75.75,0,0,1,.13-.06.89.89,0,0,0,.47-.59,2.29,2.29,0,0,1,.3-.72c.26-.31,1-.35,1.3-.61a4.17,4.17,0,0,1,1.49-.95,6,6,0,0,0,.61-.13,2.14,2.14,0,0,0,.74-.56l1.6-1.65a1.75,1.75,0,0,1,.57-.44c.55-.19,1.18.23,1.71,0-.1.51.47.92,1,1a13.33,13.33,0,0,1,1.55,0,2.81,2.81,0,0,1,1.21.71c.75.65,1,1,2,1.07a3.43,3.43,0,0,1,2.54.89,10.87,10.87,0,0,1,1.21,1.72,3.56,3.56,0,0,0,.4.69c.18.2.49.2.63.46s0,.51.2.68a1.53,1.53,0,0,0,.3.19.59.59,0,0,1,.16.58,1.43,1.43,0,0,1-.33.54.38.38,0,0,1-.19.14,1.81,1.81,0,0,0-.23,0c-.14.07-.11.27-.06.41-.58-.17-1.59,1.14-2.05,1.5-.94.73-2.66.56-3.77.63a8.28,8.28,0,0,0-2.34.25,16.12,16.12,0,0,0-1.65,1.08,1.79,1.79,0,0,1-2.25-.19,1.09,1.09,0,0,0-.23-.29.84.84,0,0,0-.36-.1L261,298a1.46,1.46,0,0,1-.74-.22,3.09,3.09,0,0,1-.4-.55c-.51-.67-2.06-.37-2.75-1.14A15.31,15.31,0,0,1,255.2,294.22Z" style="fill:#263238"></path><path d="M281.68,305.63l2.51-5.81c.29-6.64-8.31-5.55-8.31-5.55l-6.27-1.76a3.35,3.35,0,0,0-3.79,2.12L264,298.68a3.48,3.48,0,0,0,1.42,4.66l5.5,2.22a7,7,0,0,0,3.33.59Z" style="fill:#b55b52"></path></g></svg>
